<?xml version="1.0" encoding="UTF-8" standalone="no"?>
<!DOCTYPE svg PUBLIC "-//W3C//DTD SVG 1.1//EN"
 "http://www.w3.org/Graphics/SVG/1.1/DTD/svg11.dtd">
<!-- Generated by graphviz version 2.42.4 (0)
 -->
<!-- Pages: 1 -->
<svg width="655pt" height="92pt"
 viewBox="0.00 0.00 655.31 91.54" xmlns="http://www.w3.org/2000/svg" xmlns:xlink="http://www.w3.org/1999/xlink">
<g id="graph0" class="graph" transform="scale(1 1) rotate(0) translate(4 87.54)">
<!-- water_input -->
<g id="node1" class="node">
<title>water_input</title>
<polygon fill="none" stroke="#ffffff" stroke-opacity="0.600000" points="86.39,-51.27 91.24,-51.36 96.04,-51.49 100.77,-51.67 105.41,-51.88 109.94,-52.14 114.34,-52.44 118.61,-52.79 122.71,-53.17 126.65,-53.59 130.39,-54.04 133.93,-54.54 137.26,-55.07 140.37,-55.63 143.24,-56.22 145.87,-56.85 148.26,-57.5 150.39,-58.18 152.27,-58.88 153.89,-59.61 155.24,-60.36 156.35,-61.13 157.19,-61.91 157.78,-62.71 158.11,-63.52 158.2,-64.34 158.05,-65.17 157.67,-66.01 157.06,-66.85 156.24,-67.69 155.2,-68.53 153.97,-69.36 152.55,-70.19 150.95,-71.02 149.18,-71.83 147.26,-72.63 145.19,-73.41 142.99,-74.18 140.66,-74.93 138.21,-75.65 135.66,-76.36 133.02,-77.04 130.29,-77.69 127.49,-78.31 124.61,-78.91 121.68,-79.47 118.69,-80 115.66,-80.49 112.59,-80.95 109.48,-81.37 106.35,-81.75 103.19,-82.09 100.01,-82.4 96.81,-82.66 93.6,-82.87 90.38,-83.05 87.16,-83.18 83.92,-83.27 80.69,-83.31 77.45,-83.31 74.21,-83.27 70.98,-83.18 67.75,-83.05 64.53,-82.87 61.32,-82.66 58.12,-82.4 54.95,-82.09 51.79,-81.75 48.65,-81.37 45.54,-80.95 42.47,-80.49 39.44,-80 36.46,-79.47 33.52,-78.91 30.65,-78.31 27.84,-77.69 25.12,-77.04 22.47,-76.36 19.92,-75.65 17.48,-74.93 15.15,-74.18 12.94,-73.41 10.87,-72.63 8.95,-71.83 7.18,-71.02 5.59,-70.19 4.16,-69.36 2.93,-68.53 1.9,-67.69 1.07,-66.85 0.46,-66.01 0.08,-65.17 -0.07,-64.34 0.02,-63.52 0.36,-62.71 0.95,-61.91 1.79,-61.13 2.89,-60.36 4.25,-59.61 5.87,-58.88 7.75,-58.18 9.88,-57.5 12.26,-56.85 14.9,-56.22 17.77,-55.63 20.88,-55.07 24.2,-54.54 27.75,-54.04 31.49,-53.59 35.42,-53.17 39.53,-52.79 43.79,-52.44 48.2,-52.14 52.73,-51.88 57.37,-51.67 62.1,-51.49 66.9,-51.36 71.74,-51.27 76.62,-51.23 81.51,-51.23 86.39,-51.27"/>
<text text-anchor="middle" x="79.07" y="-63.57" font-family="monospace" font-size="14.00" fill="white">water_input</text>
</g>
<!-- flow_sensor -->
<g id="node2" class="node">
<title>flow_sensor</title>
<polygon fill="none" stroke="#ffffff" stroke-opacity="0.600000" points="324.2,-51.27 329.05,-51.36 333.85,-51.49 338.58,-51.67 343.22,-51.88 347.75,-52.14 352.15,-52.44 356.42,-52.79 360.52,-53.17 364.46,-53.59 368.2,-54.04 371.74,-54.54 375.07,-55.07 378.18,-55.63 381.05,-56.22 383.68,-56.85 386.07,-57.5 388.2,-58.18 390.08,-58.88 391.7,-59.61 393.06,-60.36 394.16,-61.13 395,-61.91 395.59,-62.71 395.92,-63.52 396.01,-64.34 395.86,-65.17 395.48,-66.01 394.87,-66.85 394.05,-67.69 393.01,-68.53 391.78,-69.36 390.36,-70.19 388.76,-71.02 386.99,-71.83 385.07,-72.63 383,-73.41 380.8,-74.18 378.47,-74.93 376.02,-75.65 373.47,-76.36 370.83,-77.04 368.1,-77.69 365.3,-78.31 362.42,-78.91 359.49,-79.47 356.5,-80 353.47,-80.49 350.4,-80.95 347.29,-81.37 344.16,-81.75 341,-82.09 337.82,-82.4 334.62,-82.66 331.41,-82.87 328.19,-83.05 324.97,-83.18 321.73,-83.27 318.5,-83.31 315.26,-83.31 312.02,-83.27 308.79,-83.18 305.56,-83.05 302.34,-82.87 299.13,-82.66 295.94,-82.4 292.76,-82.09 289.6,-81.75 286.46,-81.37 283.36,-80.95 280.28,-80.49 277.25,-80 274.27,-79.47 271.33,-78.91 268.46,-78.31 265.65,-77.69 262.93,-77.04 260.28,-76.36 257.73,-75.65 255.29,-74.93 252.96,-74.18 250.75,-73.41 248.68,-72.63 246.76,-71.83 244.99,-71.02 243.4,-70.19 241.98,-69.36 240.74,-68.53 239.71,-67.69 238.88,-66.85 238.28,-66.01 237.89,-65.17 237.74,-64.34 237.83,-63.52 238.17,-62.71 238.76,-61.91 239.6,-61.13 240.7,-60.36 242.06,-59.61 243.68,-58.88 245.56,-58.18 247.69,-57.5 250.07,-56.85 252.71,-56.22 255.58,-55.63 258.69,-55.07 262.01,-54.54 265.56,-54.04 269.3,-53.59 273.23,-53.17 277.34,-52.79 281.6,-52.44 286.01,-52.14 290.54,-51.88 295.18,-51.67 299.91,-51.49 304.71,-51.36 309.56,-51.27 314.43,-51.23 319.32,-51.23 324.2,-51.27"/>
<text text-anchor="middle" x="316.88" y="-63.57" font-family="monospace" font-size="14.00" fill="white">flow_sensor</text>
</g>
<!-- water_input&#45;&gt;flow_sensor -->
<g id="edge1" class="edge">
<title>water_input&#45;&gt;flow_sensor</title>
<path fill="none" stroke="#ffffff" d="M156.95,-67.27C180,-67.27 205.44,-67.27 229.09,-67.27"/>
<polygon fill="transparent" stroke="#ffffff" points="229.1,-70.77 239.1,-67.27 229.1,-63.77 229.1,-70.77"/>
</g>
<!-- water_output -->
<g id="node3" class="node">
<title>water_output</title>
<polygon fill="none" stroke="#ffffff" stroke-opacity="0.600000" points="569.4,-25.27 574.65,-25.36 579.84,-25.49 584.96,-25.67 589.98,-25.88 594.89,-26.14 599.66,-26.44 604.28,-26.79 608.73,-27.17 612.98,-27.59 617.04,-28.04 620.87,-28.54 624.48,-29.07 627.84,-29.63 630.95,-30.22 633.8,-30.85 636.39,-31.5 638.7,-32.18 640.73,-32.88 642.48,-33.61 643.95,-34.36 645.14,-35.13 646.06,-35.91 646.69,-36.71 647.06,-37.52 647.16,-38.34 646.99,-39.17 646.58,-40.01 645.92,-40.85 645.03,-41.69 643.91,-42.53 642.57,-43.36 641.03,-44.19 639.3,-45.02 637.39,-45.83 635.31,-46.63 633.07,-47.41 630.68,-48.18 628.16,-48.93 625.51,-49.65 622.75,-50.36 619.89,-51.04 616.93,-51.69 613.89,-52.31 610.78,-52.91 607.61,-53.47 604.37,-54 601.09,-54.49 597.76,-54.95 594.4,-55.37 591.01,-55.75 587.59,-56.09 584.14,-56.4 580.68,-56.66 577.21,-56.87 573.72,-57.05 570.22,-57.18 566.72,-57.27 563.22,-57.31 559.71,-57.31 556.21,-57.27 552.71,-57.18 549.21,-57.05 545.73,-56.87 542.25,-56.66 538.79,-56.4 535.35,-56.09 531.92,-55.75 528.53,-55.37 525.17,-54.95 521.84,-54.49 518.56,-54 515.32,-53.47 512.15,-52.91 509.04,-52.31 506,-51.69 503.04,-51.04 500.18,-50.36 497.42,-49.65 494.78,-48.93 492.25,-48.18 489.87,-47.41 487.62,-46.63 485.54,-45.83 483.63,-45.02 481.9,-44.19 480.36,-43.36 479.02,-42.53 477.91,-41.69 477.01,-40.85 476.35,-40.01 475.94,-39.17 475.78,-38.34 475.87,-37.52 476.24,-36.71 476.87,-35.91 477.79,-35.13 478.98,-34.36 480.45,-33.61 482.2,-32.88 484.24,-32.18 486.55,-31.5 489.13,-30.85 491.98,-30.22 495.09,-29.63 498.45,-29.07 502.06,-28.54 505.89,-28.04 509.95,-27.59 514.2,-27.17 518.65,-26.79 523.27,-26.44 528.04,-26.14 532.95,-25.88 537.97,-25.67 543.09,-25.49 548.29,-25.36 553.54,-25.27 558.82,-25.23 564.11,-25.23 569.4,-25.27"/>
<text text-anchor="middle" x="561.47" y="-37.57" font-family="monospace" font-size="14.00" fill="white">water_output</text>
</g>
<!-- flow_sensor&#45;&gt;water_output -->
<g id="edge2" class="edge">
<title>flow_sensor&#45;&gt;water_output</title>
<path fill="none" stroke="#ffffff" d="M391.32,-59.4C420.26,-56.3 453.53,-52.73 482.86,-49.59"/>
<polygon fill="transparent" stroke="#ffffff" points="483.49,-53.04 493.06,-48.49 482.75,-46.08 483.49,-53.04"/>
</g>
<!-- fertilizer_storage -->
<g id="node4" class="node">
<title>fertilizer_storage</title>
<polygon fill="none" stroke="#ffffff" stroke-opacity="0.600000" points="328.26,-0.27 335.79,-0.36 343.25,-0.49 350.6,-0.67 357.81,-0.88 364.85,-1.14 371.7,-1.44 378.33,-1.79 384.71,-2.17 390.82,-2.59 396.64,-3.04 402.14,-3.54 407.32,-4.07 412.14,-4.63 416.61,-5.22 420.7,-5.85 424.41,-6.5 427.72,-7.18 430.64,-7.88 433.16,-8.61 435.27,-9.36 436.98,-10.13 438.29,-10.91 439.2,-11.71 439.72,-12.52 439.86,-13.34 439.63,-14.17 439.04,-15.01 438.09,-15.85 436.81,-16.69 435.2,-17.53 433.29,-18.36 431.08,-19.19 428.59,-20.02 425.85,-20.83 422.86,-21.63 419.64,-22.41 416.22,-23.18 412.59,-23.93 408.8,-24.65 404.84,-25.36 400.73,-26.04 396.49,-26.69 392.13,-27.31 387.66,-27.91 383.1,-28.47 378.46,-29 373.75,-29.49 368.98,-29.95 364.15,-30.37 359.28,-30.75 354.37,-31.09 349.43,-31.4 344.46,-31.66 339.47,-31.87 334.47,-32.05 329.45,-32.18 324.42,-32.27 319.39,-32.31 314.36,-32.31 309.33,-32.27 304.31,-32.18 299.29,-32.05 294.29,-31.87 289.3,-31.66 284.33,-31.4 279.39,-31.09 274.48,-30.75 269.61,-30.37 264.78,-29.95 260.01,-29.49 255.29,-29 250.65,-28.47 246.09,-27.91 241.63,-27.31 237.27,-26.69 233.03,-26.04 228.92,-25.36 224.96,-24.65 221.16,-23.93 217.54,-23.18 214.11,-22.41 210.9,-21.63 207.91,-20.83 205.16,-20.02 202.68,-19.19 200.47,-18.36 198.55,-17.53 196.95,-16.69 195.66,-15.85 194.72,-15.01 194.12,-14.17 193.89,-13.34 194.03,-12.52 194.56,-11.71 195.47,-10.91 196.78,-10.13 198.49,-9.36 200.6,-8.61 203.12,-7.88 206.03,-7.18 209.35,-6.5 213.06,-5.85 217.15,-5.22 221.61,-4.63 226.44,-4.07 231.61,-3.54 237.12,-3.04 242.94,-2.59 249.05,-2.17 255.43,-1.79 262.05,-1.44 268.9,-1.14 275.95,-0.88 283.16,-0.67 290.51,-0.49 297.96,-0.36 305.5,-0.27 313.08,-0.23 320.68,-0.23 328.26,-0.27"/>
<text text-anchor="middle" x="316.88" y="-12.57" font-family="monospace" font-size="14.00" fill="white">fertilizer_storage</text>
</g>
<!-- fertilizer_storage&#45;&gt;water_output -->
<g id="edge3" class="edge">
<title>fertilizer_storage&#45;&gt;water_output</title>
<path fill="none" stroke="#ffffff" d="M405.46,-25.29C426.9,-27.5 449.87,-29.87 471.38,-32.09"/>
<polygon fill="transparent" stroke="#ffffff" points="471.17,-35.58 481.47,-33.13 471.89,-28.62 471.17,-35.58"/>
</g>
</g>
</svg>
