<?xml version="1.0" encoding="UTF-8" standalone="no"?>
<!DOCTYPE svg PUBLIC "-//W3C//DTD SVG 1.1//EN"
 "http://www.w3.org/Graphics/SVG/1.1/DTD/svg11.dtd">
<!-- Generated by graphviz version 2.42.4 (0)
 -->
<!-- Pages: 1 -->
<svg width="387pt" height="187pt"
 viewBox="0.00 0.00 386.58 187.00" xmlns="http://www.w3.org/2000/svg" xmlns:xlink="http://www.w3.org/1999/xlink">
<g id="graph0" class="graph" transform="scale(1 1) rotate(0) translate(4 183)">
<polygon fill="white" stroke="transparent" points="-4,4 -4,-183 382.58,-183 382.58,4 -4,4"/>
<g id="clust1" class="cluster">
<title>cluster_water_flow</title>
<polygon fill="white" stroke="black" stroke-dasharray="1,5" points="8,-100 8,-171 370.58,-171 370.58,-100 8,-100"/>
<text text-anchor="middle" x="189.29" y="-159" font-family="monospace" font-size="10.00">Main Flow</text>
</g>
<!-- water_in -->
<g id="node1" class="node">
<title>water_in</title>
<polygon fill="none" stroke="#000000" stroke-opacity="0.600000" points="59.15,-108.05 61.57,-108.15 63.96,-108.3 66.32,-108.49 68.64,-108.74 70.9,-109.03 73.1,-109.36 75.22,-109.75 77.27,-110.18 79.23,-110.65 81.1,-111.16 82.87,-111.71 84.53,-112.31 86.08,-112.94 87.52,-113.61 88.83,-114.31 90.02,-115.04 91.08,-115.8 92.02,-116.59 92.83,-117.41 93.51,-118.25 94.06,-119.11 94.48,-119.99 94.77,-120.89 94.94,-121.8 94.98,-122.72 94.91,-123.65 94.72,-124.59 94.41,-125.53 94,-126.47 93.49,-127.41 92.87,-128.35 92.16,-129.28 91.36,-130.2 90.48,-131.11 89.52,-132.01 88.49,-132.89 87.39,-133.75 86.23,-134.59 85.01,-135.41 83.73,-136.2 82.42,-136.96 81.05,-137.69 79.65,-138.39 78.22,-139.06 76.76,-139.69 75.27,-140.29 73.75,-140.84 72.22,-141.35 70.67,-141.82 69.11,-142.25 67.53,-142.64 65.94,-142.97 64.35,-143.26 62.75,-143.51 61.14,-143.7 59.53,-143.85 57.92,-143.95 56.3,-144 54.69,-144 53.07,-143.95 51.46,-143.85 49.85,-143.7 48.24,-143.51 46.64,-143.26 45.04,-142.97 43.46,-142.64 41.88,-142.25 40.32,-141.82 38.77,-141.35 37.23,-140.84 35.72,-140.29 34.23,-139.69 32.77,-139.06 31.33,-138.39 29.93,-137.69 28.57,-136.96 27.25,-136.2 25.98,-135.41 24.76,-134.59 23.6,-133.75 22.5,-132.89 21.47,-132.01 20.51,-131.11 19.62,-130.2 18.83,-129.28 18.12,-128.35 17.5,-127.41 16.99,-126.47 16.58,-125.53 16.27,-124.59 16.08,-123.65 16.01,-122.72 16.05,-121.8 16.22,-120.89 16.51,-119.99 16.93,-119.11 17.48,-118.25 18.16,-117.41 18.97,-116.59 19.9,-115.8 20.97,-115.04 22.16,-114.31 23.47,-113.61 24.91,-112.94 26.46,-112.31 28.12,-111.71 29.89,-111.16 31.75,-110.65 33.71,-110.18 35.76,-109.75 37.89,-109.36 40.09,-109.03 42.35,-108.74 44.67,-108.49 47.03,-108.3 49.42,-108.15 51.84,-108.05 54.27,-108 56.71,-108 59.15,-108.05"/>
<text text-anchor="middle" x="55.49" y="-123.5" font-family="monospace" font-size="10.00">water_in</text>
</g>
<!-- flow_sensor -->
<g id="node2" class="node">
<title>flow_sensor</title>
<polygon fill="none" stroke="#000000" stroke-opacity="0.600000" points="193.97,-108.05 197.06,-108.15 200.13,-108.3 203.15,-108.49 206.11,-108.74 209.01,-109.03 211.83,-109.36 214.55,-109.75 217.17,-110.18 219.68,-110.65 222.08,-111.16 224.34,-111.71 226.47,-112.31 228.45,-112.94 230.29,-113.61 231.97,-114.31 233.49,-115.04 234.85,-115.8 236.05,-116.59 237.09,-117.41 237.96,-118.25 238.66,-119.11 239.2,-119.99 239.57,-120.89 239.79,-121.8 239.85,-122.72 239.75,-123.65 239.51,-124.59 239.12,-125.53 238.59,-126.47 237.93,-127.41 237.14,-128.35 236.23,-129.28 235.21,-130.2 234.08,-131.11 232.86,-132.01 231.53,-132.89 230.12,-133.75 228.64,-134.59 227.07,-135.41 225.45,-136.2 223.76,-136.96 222.01,-137.69 220.22,-138.39 218.39,-139.06 216.51,-139.69 214.6,-140.29 212.67,-140.84 210.71,-141.35 208.72,-141.82 206.72,-142.25 204.7,-142.64 202.67,-142.97 200.63,-143.26 198.58,-143.51 196.52,-143.7 194.46,-143.85 192.39,-143.95 190.32,-144 188.25,-144 186.19,-143.95 184.12,-143.85 182.06,-143.7 180,-143.51 177.95,-143.26 175.91,-142.97 173.88,-142.64 171.86,-142.25 169.86,-141.82 167.87,-141.35 165.91,-140.84 163.97,-140.29 162.06,-139.69 160.19,-139.06 158.36,-138.39 156.56,-137.69 154.82,-136.96 153.13,-136.2 151.5,-135.41 149.94,-134.59 148.45,-133.75 147.04,-132.89 145.72,-132.01 144.49,-131.11 143.36,-130.2 142.34,-129.28 141.44,-128.35 140.65,-127.41 139.99,-126.47 139.46,-125.53 139.07,-124.59 138.83,-123.65 138.73,-122.72 138.79,-121.8 139,-120.89 139.38,-119.99 139.92,-119.11 140.62,-118.25 141.49,-117.41 142.52,-116.59 143.72,-115.8 145.09,-115.04 146.61,-114.31 148.29,-113.61 150.13,-112.94 152.11,-112.31 154.24,-111.71 156.5,-111.16 158.89,-110.65 161.4,-110.18 164.03,-109.75 166.75,-109.36 169.57,-109.03 172.46,-108.74 175.43,-108.49 178.45,-108.3 181.51,-108.15 184.61,-108.05 187.73,-108 190.85,-108 193.97,-108.05"/>
<text text-anchor="middle" x="189.29" y="-123.5" font-family="monospace" font-size="10.00">flow_sensor</text>
</g>
<!-- water_in&#45;&gt;flow_sensor -->
<g id="edge1" class="edge">
<title>water_in&#45;&gt;flow_sensor</title>
<path fill="none" stroke="#2196f3" d="M94.26,-126C105.2,-126 117.42,-126 129.33,-126"/>
<polygon fill="white" stroke="#2196f3" points="129.68,-129.5 139.68,-126 129.68,-122.5 129.68,-129.5"/>
</g>
<!-- water_out -->
<g id="node3" class="node">
<title>water_out</title>
<polygon fill="none" stroke="#000000" stroke-opacity="0.600000" points="323.3,-108.05 325.94,-108.15 328.55,-108.3 331.12,-108.49 333.64,-108.74 336.1,-109.03 338.5,-109.36 340.81,-109.75 343.04,-110.18 345.18,-110.65 347.22,-111.16 349.14,-111.71 350.95,-112.31 352.64,-112.94 354.2,-113.61 355.63,-114.31 356.93,-115.04 358.09,-115.8 359.11,-116.59 359.99,-117.41 360.73,-118.25 361.32,-119.11 361.78,-119.99 362.1,-120.89 362.28,-121.8 362.33,-122.72 362.25,-123.65 362.04,-124.59 361.71,-125.53 361.27,-126.47 360.7,-127.41 360.03,-128.35 359.26,-129.28 358.39,-130.2 357.43,-131.11 356.39,-132.01 355.26,-132.89 354.06,-133.75 352.8,-134.59 351.47,-135.41 350.08,-136.2 348.65,-136.96 347.16,-137.69 345.64,-138.39 344.08,-139.06 342.48,-139.69 340.86,-140.29 339.21,-140.84 337.54,-141.35 335.85,-141.82 334.15,-142.25 332.43,-142.64 330.7,-142.97 328.97,-143.26 327.22,-143.51 325.47,-143.7 323.72,-143.85 321.96,-143.95 320.2,-144 318.44,-144 316.68,-143.95 314.93,-143.85 313.17,-143.7 311.42,-143.51 309.68,-143.26 307.94,-142.97 306.21,-142.64 304.49,-142.25 302.79,-141.82 301.1,-141.35 299.43,-140.84 297.78,-140.29 296.16,-139.69 294.57,-139.06 293.01,-138.39 291.48,-137.69 290,-136.96 288.56,-136.2 287.18,-135.41 285.85,-134.59 284.58,-133.75 283.38,-132.89 282.26,-132.01 281.21,-131.11 280.25,-130.2 279.38,-129.28 278.61,-128.35 277.94,-127.41 277.38,-126.47 276.93,-125.53 276.6,-124.59 276.39,-123.65 276.31,-122.72 276.36,-121.8 276.54,-120.89 276.86,-119.99 277.32,-119.11 277.92,-118.25 278.66,-117.41 279.54,-116.59 280.56,-115.8 281.72,-115.04 283.01,-114.31 284.44,-113.61 286,-112.94 287.69,-112.31 289.5,-111.71 291.43,-111.16 293.46,-110.65 295.6,-110.18 297.83,-109.75 300.15,-109.36 302.54,-109.03 305.01,-108.74 307.53,-108.49 310.1,-108.3 312.71,-108.15 315.34,-108.05 317.99,-108 320.65,-108 323.3,-108.05"/>
<text text-anchor="middle" x="319.32" y="-123.5" font-family="monospace" font-size="10.00">water_out</text>
</g>
<!-- flow_sensor&#45;&gt;water_out -->
<g id="edge2" class="edge">
<title>flow_sensor&#45;&gt;water_out</title>
<path fill="none" stroke="#2196f3" d="M239.06,-126C248.09,-126 257.56,-126 266.68,-126"/>
<polygon fill="white" stroke="#2196f3" points="266.79,-129.5 276.79,-126 266.79,-122.5 266.79,-129.5"/>
</g>
<!-- fertilizer -->
<g id="node4" class="node">
<title>fertilizer</title>
<polygon fill="none" stroke="#000000" stroke-opacity="0.600000" points="59.85,-0.05 62.73,-0.15 65.58,-0.3 68.39,-0.49 71.15,-0.74 73.84,-1.03 76.46,-1.36 78.99,-1.75 81.43,-2.18 83.77,-2.65 86,-3.16 88.1,-3.71 90.08,-4.31 91.93,-4.94 93.63,-5.61 95.2,-6.31 96.62,-7.04 97.88,-7.8 99,-8.59 99.96,-9.41 100.77,-10.25 101.42,-11.11 101.92,-11.99 102.27,-12.89 102.47,-13.8 102.53,-14.72 102.44,-15.65 102.21,-16.59 101.85,-17.53 101.36,-18.47 100.74,-19.41 100.01,-20.35 99.17,-21.28 98.22,-22.2 97.17,-23.11 96.02,-24.01 94.79,-24.89 93.48,-25.75 92.1,-26.59 90.65,-27.41 89.13,-28.2 87.56,-28.96 85.94,-29.69 84.27,-30.39 82.56,-31.06 80.82,-31.69 79.05,-32.29 77.24,-32.84 75.42,-33.35 73.57,-33.82 71.71,-34.25 69.83,-34.64 67.94,-34.97 66.04,-35.26 64.13,-35.51 62.22,-35.7 60.3,-35.85 58.38,-35.95 56.46,-36 54.53,-36 52.61,-35.95 50.69,-35.85 48.77,-35.7 46.85,-35.51 44.95,-35.26 43.05,-34.97 41.16,-34.64 39.28,-34.25 37.42,-33.82 35.57,-33.35 33.74,-32.84 31.94,-32.29 30.17,-31.69 28.42,-31.06 26.72,-30.39 25.05,-29.69 23.43,-28.96 21.86,-28.2 20.34,-27.41 18.89,-26.59 17.5,-25.75 16.19,-24.89 14.96,-24.01 13.82,-23.11 12.77,-22.2 11.82,-21.28 10.98,-20.35 10.24,-19.41 9.63,-18.47 9.14,-17.53 8.78,-16.59 8.55,-15.65 8.46,-14.72 8.51,-13.8 8.71,-12.89 9.06,-11.99 9.56,-11.11 10.22,-10.25 11.03,-9.41 11.99,-8.59 13.1,-7.8 14.37,-7.04 15.79,-6.31 17.35,-5.61 19.06,-4.94 20.91,-4.31 22.89,-3.71 24.99,-3.16 27.22,-2.65 29.55,-2.18 31.99,-1.75 34.53,-1.36 37.15,-1.03 39.84,-0.74 42.6,-0.49 45.41,-0.3 48.26,-0.15 51.14,-0.05 54.04,0 56.95,0 59.85,-0.05"/>
<text text-anchor="middle" x="55.49" y="-15.5" font-family="monospace" font-size="10.00">fertilizer</text>
</g>
<!-- pump -->
<g id="node5" class="node">
<title>pump</title>
<polygon fill="none" stroke="#000000" stroke-opacity="0.600000" points="191.97,-27.05 193.75,-27.15 195.5,-27.3 197.24,-27.49 198.94,-27.74 200.6,-28.03 202.21,-28.36 203.77,-28.75 205.28,-29.18 206.72,-29.65 208.09,-30.16 209.39,-30.71 210.61,-31.31 211.74,-31.94 212.8,-32.61 213.76,-33.31 214.63,-34.04 215.42,-34.8 216.1,-35.59 216.7,-36.41 217.19,-37.25 217.6,-38.11 217.91,-38.99 218.12,-39.89 218.24,-40.8 218.28,-41.72 218.22,-42.65 218.08,-43.59 217.86,-44.53 217.56,-45.47 217.18,-46.41 216.73,-47.35 216.21,-48.28 215.62,-49.2 214.97,-50.11 214.27,-51.01 213.51,-51.89 212.7,-52.75 211.85,-53.59 210.95,-54.41 210.02,-55.2 209.05,-55.96 208.05,-56.69 207.03,-57.39 205.97,-58.06 204.9,-58.69 203.8,-59.29 202.69,-59.84 201.57,-60.35 200.43,-60.82 199.28,-61.25 198.13,-61.64 196.96,-61.97 195.79,-62.26 194.61,-62.51 193.43,-62.7 192.25,-62.85 191.07,-62.95 189.88,-63 188.7,-63 187.51,-62.95 186.33,-62.85 185.14,-62.7 183.96,-62.51 182.79,-62.26 181.62,-61.97 180.45,-61.64 179.29,-61.25 178.15,-60.82 177.01,-60.35 175.88,-59.84 174.77,-59.29 173.68,-58.69 172.6,-58.06 171.55,-57.39 170.52,-56.69 169.52,-55.96 168.56,-55.2 167.62,-54.41 166.73,-53.59 165.87,-52.75 165.07,-51.89 164.31,-51.01 163.6,-50.11 162.96,-49.2 162.37,-48.28 161.85,-47.35 161.4,-46.41 161.02,-45.47 160.72,-44.53 160.49,-43.59 160.35,-42.65 160.3,-41.72 160.33,-40.8 160.46,-39.89 160.67,-38.99 160.98,-38.11 161.38,-37.25 161.88,-36.41 162.47,-35.59 163.16,-34.8 163.94,-34.04 164.82,-33.31 165.78,-32.61 166.83,-31.94 167.97,-31.31 169.19,-30.71 170.49,-30.16 171.86,-29.65 173.3,-29.18 174.8,-28.75 176.37,-28.36 177.98,-28.03 179.64,-27.74 181.34,-27.49 183.07,-27.3 184.83,-27.15 186.61,-27.05 188.39,-27 190.18,-27 191.97,-27.05"/>
<text text-anchor="middle" x="189.29" y="-42.5" font-family="monospace" font-size="10.00">pump</text>
</g>
<!-- fertilizer&#45;&gt;pump -->
<g id="edge3" class="edge">
<title>fertilizer&#45;&gt;pump</title>
<path fill="none" stroke="#66dd66" d="M93.91,-25.66C111.59,-29.29 132.67,-33.61 150.41,-37.24"/>
<polygon fill="white" stroke="#66dd66" points="149.92,-40.71 160.42,-39.29 151.33,-33.86 149.92,-40.71"/>
</g>
<!-- pump&#45;&gt;water_out -->
<g id="edge4" class="edge">
<title>pump&#45;&gt;water_out</title>
<path fill="none" stroke="#66dd66" d="M208.63,-56.61C228.59,-69.23 260.89,-89.67 285.28,-105.1"/>
<polygon fill="white" stroke="#66dd66" points="283.56,-108.15 293.88,-110.54 287.3,-102.23 283.56,-108.15"/>
</g>
<!-- controller -->
<g id="node6" class="node">
<title>controller</title>
<polygon fill="none" stroke="#000000" stroke-opacity="0.600000" points="59.85,-54.05 62.73,-54.15 65.58,-54.3 68.39,-54.49 71.15,-54.74 73.84,-55.03 76.46,-55.36 78.99,-55.75 81.43,-56.18 83.77,-56.65 86,-57.16 88.1,-57.71 90.08,-58.31 91.93,-58.94 93.63,-59.61 95.2,-60.31 96.62,-61.04 97.88,-61.8 99,-62.59 99.96,-63.41 100.77,-64.25 101.42,-65.11 101.92,-65.99 102.27,-66.89 102.47,-67.8 102.53,-68.72 102.44,-69.65 102.21,-70.59 101.85,-71.53 101.36,-72.47 100.74,-73.41 100.01,-74.35 99.17,-75.28 98.22,-76.2 97.17,-77.11 96.02,-78.01 94.79,-78.89 93.48,-79.75 92.1,-80.59 90.65,-81.41 89.13,-82.2 87.56,-82.96 85.94,-83.69 84.27,-84.39 82.56,-85.06 80.82,-85.69 79.05,-86.29 77.24,-86.84 75.42,-87.35 73.57,-87.82 71.71,-88.25 69.83,-88.64 67.94,-88.97 66.04,-89.26 64.13,-89.51 62.22,-89.7 60.3,-89.85 58.38,-89.95 56.46,-90 54.53,-90 52.61,-89.95 50.69,-89.85 48.77,-89.7 46.85,-89.51 44.95,-89.26 43.05,-88.97 41.16,-88.64 39.28,-88.25 37.42,-87.82 35.57,-87.35 33.74,-86.84 31.94,-86.29 30.17,-85.69 28.42,-85.06 26.72,-84.39 25.05,-83.69 23.43,-82.96 21.86,-82.2 20.34,-81.41 18.89,-80.59 17.5,-79.75 16.19,-78.89 14.96,-78.01 13.82,-77.11 12.77,-76.2 11.82,-75.28 10.98,-74.35 10.24,-73.41 9.63,-72.47 9.14,-71.53 8.78,-70.59 8.55,-69.65 8.46,-68.72 8.51,-67.8 8.71,-66.89 9.06,-65.99 9.56,-65.11 10.22,-64.25 11.03,-63.41 11.99,-62.59 13.1,-61.8 14.37,-61.04 15.79,-60.31 17.35,-59.61 19.06,-58.94 20.91,-58.31 22.89,-57.71 24.99,-57.16 27.22,-56.65 29.55,-56.18 31.99,-55.75 34.53,-55.36 37.15,-55.03 39.84,-54.74 42.6,-54.49 45.41,-54.3 48.26,-54.15 51.14,-54.05 54.04,-54 56.95,-54 59.85,-54.05"/>
<text text-anchor="middle" x="55.49" y="-69.5" font-family="monospace" font-size="10.00">controller</text>
</g>
<!-- controller&#45;&gt;flow_sensor -->
<g id="edge5" class="edge">
<title>controller&#45;&gt;flow_sensor</title>
<path fill="none" stroke="#ff9800" stroke-dasharray="5,2" d="M85.74,-83.98C105.76,-92.19 132.4,-103.1 153.51,-111.75"/>
</g>
<!-- controller&#45;&gt;pump -->
<g id="edge6" class="edge">
<title>controller&#45;&gt;pump</title>
<path fill="none" stroke="#ff9800" stroke-dasharray="5,2" d="M100.01,-63.08C121.01,-58.78 145.44,-53.78 163.27,-50.13"/>
</g>
</g>
</svg>
