<?xml version="1.0" encoding="UTF-8" standalone="no"?>
<!DOCTYPE svg PUBLIC "-//W3C//DTD SVG 1.1//EN"
 "http://www.w3.org/Graphics/SVG/1.1/DTD/svg11.dtd">
<!-- Generated by graphviz version 2.42.4 (0)
 -->
<!-- Pages: 1 -->
<svg width="494pt" height="187pt"
 viewBox="0.00 0.00 494.04 187.00" xmlns="http://www.w3.org/2000/svg" xmlns:xlink="http://www.w3.org/1999/xlink">
<g id="graph0" class="graph" transform="scale(1 1) rotate(0) translate(4 183)">
<polygon fill="white" stroke="transparent" points="-4,4 -4,-183 490.04,-183 490.04,4 -4,4"/>
<g id="clust1" class="cluster">
<title>cluster_water_flow</title>
<polygon fill="white" stroke="black" stroke-dasharray="1,5" points="8,-46 8,-171 478.04,-171 478.04,-46 8,-46"/>
<text text-anchor="middle" x="243.02" y="-159" font-family="monospace" font-size="10.00">Main Flow</text>
</g>
<!-- pot_outlet -->
<g id="node1" class="node">
<title>pot_outlet</title>
<polygon fill="none" stroke="#000000" stroke-opacity="0.600000" points="67.37,-54.05 70.25,-54.15 73.1,-54.3 75.91,-54.49 78.67,-54.74 81.36,-55.03 83.98,-55.36 86.52,-55.75 88.96,-56.18 91.29,-56.65 93.52,-57.16 95.62,-57.71 97.6,-58.31 99.45,-58.94 101.16,-59.61 102.72,-60.31 104.14,-61.04 105.41,-61.8 106.52,-62.59 107.48,-63.41 108.29,-64.25 108.95,-65.11 109.45,-65.99 109.8,-66.89 110,-67.8 110.05,-68.72 109.96,-69.65 109.73,-70.59 109.37,-71.53 108.88,-72.47 108.27,-73.41 107.53,-74.35 106.69,-75.28 105.74,-76.2 104.69,-77.11 103.55,-78.01 102.32,-78.89 101.01,-79.75 99.62,-80.59 98.17,-81.41 96.65,-82.2 95.08,-82.96 93.46,-83.69 91.79,-84.39 90.09,-85.06 88.34,-85.69 86.57,-86.29 84.77,-86.84 82.94,-87.35 81.09,-87.82 79.23,-88.25 77.35,-88.64 75.46,-88.97 73.56,-89.26 71.66,-89.51 69.74,-89.7 67.82,-89.85 65.9,-89.95 63.98,-90 62.05,-90 60.13,-89.95 58.21,-89.85 56.29,-89.7 54.38,-89.51 52.47,-89.26 50.57,-88.97 48.68,-88.64 46.8,-88.25 44.94,-87.82 43.09,-87.35 41.27,-86.84 39.46,-86.29 37.69,-85.69 35.95,-85.06 34.24,-84.39 32.57,-83.69 30.95,-82.96 29.38,-82.2 27.86,-81.41 26.41,-80.59 25.03,-79.75 23.72,-78.89 22.49,-78.01 21.34,-77.11 20.29,-76.2 19.34,-75.28 18.5,-74.35 17.77,-73.41 17.15,-72.47 16.66,-71.53 16.3,-70.59 16.07,-69.65 15.98,-68.72 16.04,-67.8 16.24,-66.89 16.59,-65.99 17.09,-65.11 17.74,-64.25 18.55,-63.41 19.51,-62.59 20.63,-61.8 21.89,-61.04 23.31,-60.31 24.88,-59.61 26.58,-58.94 28.43,-58.31 30.41,-57.71 32.51,-57.16 34.74,-56.65 37.08,-56.18 39.52,-55.75 42.05,-55.36 44.67,-55.03 47.36,-54.74 50.12,-54.49 52.93,-54.3 55.78,-54.15 58.66,-54.05 61.56,-54 64.47,-54 67.37,-54.05"/>
<text text-anchor="middle" x="63.02" y="-69.5" font-family="monospace" font-size="10.00">pot_outlet</text>
</g>
<!-- container -->
<g id="node2" class="node">
<title>container</title>
<polygon fill="none" stroke="#000000" stroke-opacity="0.600000" points="197.03,-54.05 199.67,-54.15 202.27,-54.3 204.84,-54.49 207.37,-54.74 209.83,-55.03 212.22,-55.36 214.54,-55.75 216.77,-56.18 218.91,-56.65 220.94,-57.16 222.87,-57.71 224.68,-58.31 226.37,-58.94 227.93,-59.61 229.36,-60.31 230.66,-61.04 231.82,-61.8 232.84,-62.59 233.72,-63.41 234.45,-64.25 235.05,-65.11 235.51,-65.99 235.83,-66.89 236.01,-67.8 236.06,-68.72 235.98,-69.65 235.77,-70.59 235.44,-71.53 234.99,-72.47 234.43,-73.41 233.76,-74.35 232.99,-75.28 232.12,-76.2 231.16,-77.11 230.11,-78.01 228.99,-78.89 227.79,-79.75 226.53,-80.59 225.2,-81.41 223.81,-82.2 222.37,-82.96 220.89,-83.69 219.37,-84.39 217.81,-85.06 216.21,-85.69 214.59,-86.29 212.94,-86.84 211.27,-87.35 209.58,-87.82 207.88,-88.25 206.16,-88.64 204.43,-88.97 202.7,-89.26 200.95,-89.51 199.2,-89.7 197.45,-89.85 195.69,-89.95 193.93,-90 192.17,-90 190.41,-89.95 188.65,-89.85 186.9,-89.7 185.15,-89.51 183.4,-89.26 181.67,-88.97 179.94,-88.64 178.22,-88.25 176.52,-87.82 174.83,-87.35 173.16,-86.84 171.51,-86.29 169.89,-85.69 168.29,-85.06 166.73,-84.39 165.21,-83.69 163.73,-82.96 162.29,-82.2 160.9,-81.41 159.57,-80.59 158.31,-79.75 157.11,-78.89 155.99,-78.01 154.94,-77.11 153.98,-76.2 153.11,-75.28 152.34,-74.35 151.67,-73.41 151.11,-72.47 150.66,-71.53 150.33,-70.59 150.12,-69.65 150.04,-68.72 150.09,-67.8 150.27,-66.89 150.59,-65.99 151.05,-65.11 151.65,-64.25 152.38,-63.41 153.26,-62.59 154.28,-61.8 155.44,-61.04 156.74,-60.31 158.17,-59.61 159.73,-58.94 161.42,-58.31 163.23,-57.71 165.16,-57.16 167.19,-56.65 169.33,-56.18 171.56,-55.75 173.88,-55.36 176.27,-55.03 178.73,-54.74 181.26,-54.49 183.83,-54.3 186.43,-54.15 189.07,-54.05 191.72,-54 194.38,-54 197.03,-54.05"/>
<text text-anchor="middle" x="193.05" y="-69.5" font-family="monospace" font-size="10.00">container</text>
</g>
<!-- pot_outlet&#45;&gt;container -->
<g id="edge1" class="edge">
<title>pot_outlet&#45;&gt;container</title>
<path fill="none" stroke="#2196f3" d="M109.16,-72C119.31,-72 130.15,-72 140.54,-72"/>
<polygon fill="white" stroke="#2196f3" points="140.74,-75.5 150.74,-72 140.74,-68.5 140.74,-75.5"/>
</g>
<!-- pump -->
<g id="node3" class="node">
<title>pump</title>
<polygon fill="none" stroke="#000000" stroke-opacity="0.600000" points="310.72,-54.05 312.5,-54.15 314.25,-54.3 315.99,-54.49 317.69,-54.74 319.35,-55.03 320.96,-55.36 322.52,-55.75 324.03,-56.18 325.47,-56.65 326.84,-57.16 328.14,-57.71 329.36,-58.31 330.49,-58.94 331.55,-59.61 332.51,-60.31 333.38,-61.04 334.16,-61.8 334.85,-62.59 335.45,-63.41 335.94,-64.25 336.35,-65.11 336.66,-65.99 336.87,-66.89 336.99,-67.8 337.03,-68.72 336.97,-69.65 336.83,-70.59 336.61,-71.53 336.31,-72.47 335.93,-73.41 335.48,-74.35 334.96,-75.28 334.37,-76.2 333.72,-77.11 333.02,-78.01 332.26,-78.89 331.45,-79.75 330.6,-80.59 329.7,-81.41 328.77,-82.2 327.8,-82.96 326.8,-83.69 325.77,-84.39 324.72,-85.06 323.65,-85.69 322.55,-86.29 321.44,-86.84 320.32,-87.35 319.18,-87.82 318.03,-88.25 316.87,-88.64 315.71,-88.97 314.54,-89.26 313.36,-89.51 312.18,-89.7 311,-89.85 309.82,-89.95 308.63,-90 307.45,-90 306.26,-89.95 305.07,-89.85 303.89,-89.7 302.71,-89.51 301.54,-89.26 300.37,-88.97 299.2,-88.64 298.04,-88.25 296.9,-87.82 295.76,-87.35 294.63,-86.84 293.52,-86.29 292.43,-85.69 291.35,-85.06 290.3,-84.39 289.27,-83.69 288.27,-82.96 287.31,-82.2 286.37,-81.41 285.48,-80.59 284.62,-79.75 283.82,-78.89 283.06,-78.01 282.35,-77.11 281.71,-76.2 281.12,-75.28 280.6,-74.35 280.15,-73.41 279.77,-72.47 279.47,-71.53 279.24,-70.59 279.1,-69.65 279.05,-68.72 279.08,-67.8 279.21,-66.89 279.42,-65.99 279.73,-65.11 280.13,-64.25 280.63,-63.41 281.22,-62.59 281.91,-61.8 282.69,-61.04 283.57,-60.31 284.53,-59.61 285.58,-58.94 286.72,-58.31 287.94,-57.71 289.24,-57.16 290.61,-56.65 292.05,-56.18 293.55,-55.75 295.12,-55.36 296.73,-55.03 298.39,-54.74 300.09,-54.49 301.82,-54.3 303.58,-54.15 305.36,-54.05 307.14,-54 308.93,-54 310.72,-54.05"/>
<text text-anchor="middle" x="308.04" y="-69.5" font-family="monospace" font-size="10.00">pump</text>
</g>
<!-- container&#45;&gt;pump -->
<g id="edge2" class="edge">
<title>container&#45;&gt;pump</title>
<path fill="none" stroke="#2196f3" d="M235.48,-72C246.55,-72 258.46,-72 269.32,-72"/>
<polygon fill="white" stroke="#2196f3" points="269.35,-75.5 279.35,-72 269.35,-68.5 269.35,-75.5"/>
</g>
<!-- sensor -->
<g id="node5" class="node">
<title>sensor</title>
<polygon fill="none" stroke="#000000" stroke-opacity="0.600000" points="310.99,-108.05 312.95,-108.15 314.89,-108.3 316.8,-108.49 318.67,-108.74 320.5,-109.03 322.28,-109.36 324,-109.75 325.66,-110.18 327.24,-110.65 328.75,-111.16 330.18,-111.71 331.53,-112.31 332.78,-112.94 333.94,-113.61 335,-114.31 335.97,-115.04 336.83,-115.8 337.58,-116.59 338.24,-117.41 338.79,-118.25 339.23,-119.11 339.57,-119.99 339.81,-120.89 339.94,-121.8 339.98,-122.72 339.92,-123.65 339.77,-124.59 339.52,-125.53 339.19,-126.47 338.77,-127.41 338.27,-128.35 337.7,-129.28 337.05,-130.2 336.34,-131.11 335.56,-132.01 334.73,-132.89 333.84,-133.75 332.9,-134.59 331.91,-135.41 330.88,-136.2 329.82,-136.96 328.71,-137.69 327.58,-138.39 326.42,-139.06 325.24,-139.69 324.03,-140.29 322.81,-140.84 321.57,-141.35 320.32,-141.82 319.05,-142.25 317.77,-142.64 316.49,-142.97 315.2,-143.26 313.91,-143.51 312.61,-143.7 311.3,-143.85 310,-143.95 308.69,-144 307.38,-144 306.08,-143.95 304.77,-143.85 303.47,-143.7 302.17,-143.51 300.87,-143.26 299.58,-142.97 298.3,-142.64 297.03,-142.25 295.76,-141.82 294.51,-141.35 293.27,-140.84 292.04,-140.29 290.84,-139.69 289.65,-139.06 288.49,-138.39 287.36,-137.69 286.26,-136.96 285.19,-136.2 284.16,-135.41 283.18,-134.59 282.24,-133.75 281.35,-132.89 280.51,-132.01 279.74,-131.11 279.02,-130.2 278.38,-129.28 277.8,-128.35 277.31,-127.41 276.89,-126.47 276.56,-125.53 276.31,-124.59 276.16,-123.65 276.1,-122.72 276.13,-121.8 276.27,-120.89 276.5,-119.99 276.85,-119.11 277.29,-118.25 277.84,-117.41 278.49,-116.59 279.25,-115.8 280.11,-115.04 281.07,-114.31 282.14,-113.61 283.3,-112.94 284.55,-112.31 285.89,-111.71 287.32,-111.16 288.83,-110.65 290.42,-110.18 292.08,-109.75 293.8,-109.36 295.58,-109.03 297.41,-108.74 299.28,-108.49 301.19,-108.3 303.13,-108.15 305.08,-108.05 307.05,-108 309.02,-108 310.99,-108.05"/>
<text text-anchor="middle" x="308.04" y="-123.5" font-family="monospace" font-size="10.00">sensor</text>
</g>
<!-- container&#45;&gt;sensor -->
<g id="edge4" class="edge">
<title>container&#45;&gt;sensor</title>
<path fill="none" stroke="#2196f3" stroke-dasharray="5,2" d="M219.69,-84.25C238.18,-93.09 263.03,-104.97 281.5,-113.8"/>
</g>
<!-- water_sink -->
<g id="node4" class="node">
<title>water_sink</title>
<polygon fill="none" stroke="#000000" stroke-opacity="0.600000" points="427.38,-54.05 430.26,-54.15 433.11,-54.3 435.92,-54.49 438.68,-54.74 441.37,-55.03 443.99,-55.36 446.53,-55.75 448.97,-56.18 451.3,-56.65 453.53,-57.16 455.63,-57.71 457.61,-58.31 459.46,-58.94 461.17,-59.61 462.73,-60.31 464.15,-61.04 465.42,-61.8 466.53,-62.59 467.49,-63.41 468.3,-64.25 468.96,-65.11 469.46,-65.99 469.81,-66.89 470.01,-67.8 470.06,-68.72 469.97,-69.65 469.74,-70.59 469.38,-71.53 468.89,-72.47 468.28,-73.41 467.54,-74.35 466.7,-75.28 465.75,-76.2 464.7,-77.11 463.56,-78.01 462.33,-78.89 461.02,-79.75 459.63,-80.59 458.18,-81.41 456.66,-82.2 455.09,-82.96 453.47,-83.69 451.8,-84.39 450.1,-85.06 448.35,-85.69 446.58,-86.29 444.78,-86.84 442.95,-87.35 441.1,-87.82 439.24,-88.25 437.36,-88.64 435.47,-88.97 433.57,-89.26 431.67,-89.51 429.75,-89.7 427.83,-89.85 425.91,-89.95 423.99,-90 422.06,-90 420.14,-89.95 418.22,-89.85 416.3,-89.7 414.39,-89.51 412.48,-89.26 410.58,-88.97 408.69,-88.64 406.81,-88.25 404.95,-87.82 403.1,-87.35 401.28,-86.84 399.47,-86.29 397.7,-85.69 395.96,-85.06 394.25,-84.39 392.58,-83.69 390.96,-82.96 389.39,-82.2 387.87,-81.41 386.42,-80.59 385.04,-79.75 383.73,-78.89 382.5,-78.01 381.35,-77.11 380.3,-76.2 379.35,-75.28 378.51,-74.35 377.78,-73.41 377.16,-72.47 376.67,-71.53 376.31,-70.59 376.08,-69.65 375.99,-68.72 376.05,-67.8 376.25,-66.89 376.6,-65.99 377.1,-65.11 377.75,-64.25 378.56,-63.41 379.52,-62.59 380.64,-61.8 381.9,-61.04 383.32,-60.31 384.89,-59.61 386.59,-58.94 388.44,-58.31 390.42,-57.71 392.52,-57.16 394.75,-56.65 397.09,-56.18 399.53,-55.75 402.06,-55.36 404.68,-55.03 407.37,-54.74 410.13,-54.49 412.94,-54.3 415.79,-54.15 418.67,-54.05 421.57,-54 424.48,-54 427.38,-54.05"/>
<text text-anchor="middle" x="423.03" y="-69.5" font-family="monospace" font-size="10.00">water_sink</text>
</g>
<!-- pump&#45;&gt;water_sink -->
<g id="edge3" class="edge">
<title>pump&#45;&gt;water_sink</title>
<path fill="none" stroke="#2196f3" d="M336.68,-72C345.69,-72 356.05,-72 366.37,-72"/>
<polygon fill="white" stroke="#2196f3" points="366.62,-75.5 376.62,-72 366.62,-68.5 366.62,-75.5"/>
</g>
<!-- controller -->
<g id="node6" class="node">
<title>controller</title>
<polygon fill="none" stroke="#000000" stroke-opacity="0.600000" points="197.4,-0.05 200.28,-0.15 203.14,-0.3 205.95,-0.49 208.7,-0.74 211.4,-1.03 214.02,-1.36 216.55,-1.75 218.99,-2.18 221.33,-2.65 223.55,-3.16 225.66,-3.71 227.64,-4.31 229.48,-4.94 231.19,-5.61 232.75,-6.31 234.17,-7.04 235.44,-7.8 236.56,-8.59 237.52,-9.41 238.33,-10.25 238.98,-11.11 239.48,-11.99 239.83,-12.89 240.03,-13.8 240.08,-14.72 239.99,-15.65 239.77,-16.59 239.41,-17.53 238.91,-18.47 238.3,-19.41 237.57,-20.35 236.72,-21.28 235.77,-22.2 234.72,-23.11 233.58,-24.01 232.35,-24.89 231.04,-25.75 229.65,-26.59 228.2,-27.41 226.69,-28.2 225.12,-28.96 223.49,-29.69 221.83,-30.39 220.12,-31.06 218.38,-31.69 216.6,-32.29 214.8,-32.84 212.97,-33.35 211.13,-33.82 209.26,-34.25 207.39,-34.64 205.5,-34.97 203.6,-35.26 201.69,-35.51 199.78,-35.7 197.86,-35.85 195.94,-35.95 194.01,-36 192.09,-36 190.16,-35.95 188.24,-35.85 186.32,-35.7 184.41,-35.51 182.5,-35.26 180.6,-34.97 178.71,-34.64 176.84,-34.25 174.97,-33.82 173.13,-33.35 171.3,-32.84 169.5,-32.29 167.72,-31.69 165.98,-31.06 164.27,-30.39 162.61,-29.69 160.98,-28.96 159.41,-28.2 157.9,-27.41 156.45,-26.59 155.06,-25.75 153.75,-24.89 152.52,-24.01 151.38,-23.11 150.33,-22.2 149.38,-21.28 148.53,-20.35 147.8,-19.41 147.19,-18.47 146.69,-17.53 146.33,-16.59 146.11,-15.65 146.02,-14.72 146.07,-13.8 146.27,-12.89 146.62,-11.99 147.12,-11.11 147.77,-10.25 148.58,-9.41 149.54,-8.59 150.66,-7.8 151.93,-7.04 153.35,-6.31 154.91,-5.61 156.62,-4.94 158.46,-4.31 160.44,-3.71 162.55,-3.16 164.77,-2.65 167.11,-2.18 169.55,-1.75 172.08,-1.36 174.7,-1.03 177.4,-0.74 180.15,-0.49 182.96,-0.3 185.82,-0.15 188.7,-0.05 191.6,0 194.5,0 197.4,-0.05"/>
<text text-anchor="middle" x="193.05" y="-15.5" font-family="monospace" font-size="10.00">controller</text>
</g>
<!-- controller&#45;&gt;pump -->
<g id="edge6" class="edge">
<title>controller&#45;&gt;pump</title>
<path fill="none" stroke="#ff9800" stroke-dasharray="5,2" d="M220.83,-30.8C239.75,-39.84 264.9,-51.86 283.14,-60.58"/>
</g>
<!-- controller&#45;&gt;sensor -->
<g id="edge5" class="edge">
<title>controller&#45;&gt;sensor</title>
<path fill="none" stroke="#ff9800" stroke-dasharray="5,2" d="M222.84,-30.03C228.93,-33.36 235.03,-37.36 240.07,-42 262.11,-62.29 256.57,-76.25 276.07,-99 279.59,-103.12 283.76,-107.17 287.87,-110.83"/>
</g>
<!-- power -->
<g id="node7" class="node">
<title>power</title>
<polygon fill="none" stroke="#000000" stroke-opacity="0.600000" points="65.7,-0.05 67.48,-0.15 69.23,-0.3 70.97,-0.49 72.66,-0.74 74.32,-1.03 75.94,-1.36 77.5,-1.75 79.01,-2.18 80.45,-2.65 81.82,-3.16 83.11,-3.71 84.33,-4.31 85.47,-4.94 86.52,-5.61 87.49,-6.31 88.36,-7.04 89.14,-7.8 89.83,-8.59 90.42,-9.41 90.92,-10.25 91.33,-11.11 91.63,-11.99 91.85,-12.89 91.97,-13.8 92.01,-14.72 91.95,-15.65 91.81,-16.59 91.59,-17.53 91.29,-18.47 90.91,-19.41 90.46,-20.35 89.93,-21.28 89.35,-22.2 88.7,-23.11 88,-24.01 87.24,-24.89 86.43,-25.75 85.58,-26.59 84.68,-27.41 83.75,-28.2 82.78,-28.96 81.78,-29.69 80.75,-30.39 79.7,-31.06 78.63,-31.69 77.53,-32.29 76.42,-32.84 75.3,-33.35 74.16,-33.82 73.01,-34.25 71.85,-34.64 70.69,-34.97 69.52,-35.26 68.34,-35.51 67.16,-35.7 65.98,-35.85 64.8,-35.95 63.61,-36 62.42,-36 61.24,-35.95 60.05,-35.85 58.87,-35.7 57.69,-35.51 56.52,-35.26 55.34,-34.97 54.18,-34.64 53.02,-34.25 51.87,-33.82 50.74,-33.35 49.61,-32.84 48.5,-32.29 47.41,-31.69 46.33,-31.06 45.28,-30.39 44.25,-29.69 43.25,-28.96 42.28,-28.2 41.35,-27.41 40.46,-26.59 39.6,-25.75 38.79,-24.89 38.04,-24.01 37.33,-23.11 36.68,-22.2 36.1,-21.28 35.58,-20.35 35.13,-19.41 34.75,-18.47 34.45,-17.53 34.22,-16.59 34.08,-15.65 34.03,-14.72 34.06,-13.8 34.18,-12.89 34.4,-11.99 34.71,-11.11 35.11,-10.25 35.61,-9.41 36.2,-8.59 36.89,-7.8 37.67,-7.04 38.54,-6.31 39.51,-5.61 40.56,-4.94 41.7,-4.31 42.92,-3.71 44.22,-3.16 45.59,-2.65 47.03,-2.18 48.53,-1.75 50.09,-1.36 51.71,-1.03 53.37,-0.74 55.07,-0.49 56.8,-0.3 58.56,-0.15 60.33,-0.05 62.12,0 63.91,0 65.7,-0.05"/>
<text text-anchor="middle" x="63.02" y="-15.5" font-family="monospace" font-size="10.00">power</text>
</g>
<!-- power&#45;&gt;controller -->
<g id="edge7" class="edge">
<title>power&#45;&gt;controller</title>
<path fill="none" stroke="#ff5c5c" stroke-dasharray="5,2" d="M91.48,-18C104.68,-18 121,-18 136.62,-18"/>
<polygon fill="white" stroke="#ff5c5c" points="136.75,-21.5 146.75,-18 136.75,-14.5 136.75,-21.5"/>
</g>
</g>
</svg>
