<?xml version="1.0" encoding="UTF-8" standalone="no"?>
<!DOCTYPE svg PUBLIC "-//W3C//DTD SVG 1.1//EN"
 "http://www.w3.org/Graphics/SVG/1.1/DTD/svg11.dtd">
<!-- Generated by graphviz version 2.42.4 (0)
 -->
<!-- Pages: 1 -->
<svg width="634pt" height="98pt"
 viewBox="0.00 0.00 633.97 98.00" xmlns="http://www.w3.org/2000/svg" xmlns:xlink="http://www.w3.org/1999/xlink">
<g id="graph0" class="graph" transform="scale(1 1) rotate(0) translate(4 94)">
<polygon fill="white" stroke="transparent" points="-4,4 -4,-94 629.97,-94 629.97,4 -4,4"/>
<!-- plant -->
<g id="node1" class="node">
<title>plant</title>
<polygon fill="none" stroke="#000000" stroke-opacity="0.600000" points="31.43,-23.05 33.2,-23.15 34.96,-23.3 36.69,-23.49 38.39,-23.74 40.05,-24.03 41.67,-24.36 43.23,-24.75 44.73,-25.18 46.17,-25.65 47.54,-26.16 48.84,-26.71 50.06,-27.31 51.2,-27.94 52.25,-28.61 53.22,-29.31 54.09,-30.04 54.87,-30.8 55.56,-31.59 56.15,-32.41 56.65,-33.25 57.05,-34.11 57.36,-34.99 57.58,-35.89 57.7,-36.8 57.73,-37.72 57.68,-38.65 57.54,-39.59 57.31,-40.53 57.01,-41.47 56.63,-42.41 56.18,-43.35 55.66,-44.28 55.08,-45.2 54.43,-46.11 53.72,-47.01 52.97,-47.89 52.16,-48.75 51.3,-49.59 50.41,-50.41 49.48,-51.2 48.51,-51.96 47.51,-52.69 46.48,-53.39 45.43,-54.06 44.35,-54.69 43.26,-55.29 42.15,-55.84 41.02,-56.35 39.89,-56.82 38.74,-57.25 37.58,-57.64 36.42,-57.97 35.24,-58.26 34.07,-58.51 32.89,-58.7 31.71,-58.85 30.52,-58.95 29.34,-59 28.15,-59 26.96,-58.95 25.78,-58.85 24.6,-58.7 23.42,-58.51 22.24,-58.26 21.07,-57.97 19.91,-57.64 18.75,-57.25 17.6,-56.82 16.46,-56.35 15.34,-55.84 14.23,-55.29 13.13,-54.69 12.06,-54.06 11.01,-53.39 9.98,-52.69 8.98,-51.96 8.01,-51.2 7.08,-50.41 6.18,-49.59 5.33,-48.75 4.52,-47.89 3.76,-47.01 3.06,-46.11 2.41,-45.2 1.83,-44.28 1.3,-43.35 0.85,-42.41 0.47,-41.47 0.17,-40.53 -0.05,-39.59 -0.19,-38.65 -0.25,-37.72 -0.21,-36.8 -0.09,-35.89 0.13,-34.99 0.43,-34.11 0.84,-33.25 1.34,-32.41 1.93,-31.59 2.62,-30.8 3.4,-30.04 4.27,-29.31 5.24,-28.61 6.29,-27.94 7.43,-27.31 8.65,-26.71 9.94,-26.16 11.31,-25.65 12.75,-25.18 14.26,-24.75 15.82,-24.36 17.44,-24.03 19.1,-23.74 20.79,-23.49 22.53,-23.3 24.28,-23.15 26.06,-23.05 27.85,-23 29.64,-23 31.43,-23.05"/>
<text text-anchor="middle" x="28.74" y="-38.5" font-family="monospace" font-size="10.00">plant</text>
</g>
<!-- sensor -->
<g id="node2" class="node">
<title>sensor</title>
<polygon fill="none" stroke="#000000" stroke-opacity="0.600000" points="128.41,-46.05 130.37,-46.15 132.31,-46.3 134.22,-46.49 136.09,-46.74 137.92,-47.03 139.7,-47.36 141.42,-47.75 143.08,-48.18 144.66,-48.65 146.17,-49.16 147.6,-49.71 148.95,-50.31 150.2,-50.94 151.36,-51.61 152.42,-52.31 153.39,-53.04 154.25,-53.8 155,-54.59 155.66,-55.41 156.21,-56.25 156.65,-57.11 156.99,-57.99 157.23,-58.89 157.36,-59.8 157.4,-60.72 157.34,-61.65 157.19,-62.59 156.94,-63.53 156.61,-64.47 156.19,-65.41 155.69,-66.35 155.12,-67.28 154.47,-68.2 153.76,-69.11 152.98,-70.01 152.15,-70.89 151.26,-71.75 150.32,-72.59 149.33,-73.41 148.3,-74.2 147.24,-74.96 146.13,-75.69 145,-76.39 143.84,-77.06 142.66,-77.69 141.45,-78.29 140.23,-78.84 138.99,-79.35 137.74,-79.82 136.47,-80.25 135.2,-80.64 133.91,-80.97 132.62,-81.26 131.33,-81.51 130.03,-81.7 128.72,-81.85 127.42,-81.95 126.11,-82 124.8,-82 123.5,-81.95 122.19,-81.85 120.89,-81.7 119.59,-81.51 118.29,-81.26 117,-80.97 115.72,-80.64 114.45,-80.25 113.18,-79.82 111.93,-79.35 110.69,-78.84 109.46,-78.29 108.26,-77.69 107.07,-77.06 105.91,-76.39 104.78,-75.69 103.68,-74.96 102.61,-74.2 101.58,-73.41 100.6,-72.59 99.66,-71.75 98.77,-70.89 97.93,-70.01 97.16,-69.11 96.44,-68.2 95.8,-67.28 95.22,-66.35 94.73,-65.41 94.31,-64.47 93.98,-63.53 93.73,-62.59 93.58,-61.65 93.52,-60.72 93.55,-59.8 93.69,-58.89 93.93,-57.99 94.27,-57.11 94.71,-56.25 95.26,-55.41 95.91,-54.59 96.67,-53.8 97.53,-53.04 98.49,-52.31 99.56,-51.61 100.72,-50.94 101.97,-50.31 103.31,-49.71 104.74,-49.16 106.25,-48.65 107.84,-48.18 109.5,-47.75 111.22,-47.36 113,-47.03 114.83,-46.74 116.7,-46.49 118.61,-46.3 120.55,-46.15 122.5,-46.05 124.47,-46 126.44,-46 128.41,-46.05"/>
<text text-anchor="middle" x="125.46" y="-61.5" font-family="monospace" font-size="10.00">sensor</text>
</g>
<!-- plant&#45;&gt;sensor -->
<g id="edge1" class="edge">
<title>plant&#45;&gt;sensor</title>
<path fill="none" stroke="black" d="M54.13,-46.92C63.44,-49.18 74.3,-51.82 84.67,-54.34"/>
<polygon fill="white" stroke="black" points="83.85,-57.74 94.39,-56.7 85.5,-50.94 83.85,-57.74"/>
</g>
<!-- mqtt -->
<g id="node3" class="node">
<title>mqtt</title>
<polygon fill="none" stroke="#000000" stroke-opacity="0.600000" points="224.86,-46.05 226.63,-46.15 228.39,-46.3 230.12,-46.49 231.82,-46.74 233.48,-47.03 235.1,-47.36 236.66,-47.75 238.16,-48.18 239.6,-48.65 240.97,-49.16 242.27,-49.71 243.49,-50.31 244.63,-50.94 245.68,-51.61 246.64,-52.31 247.52,-53.04 248.3,-53.8 248.99,-54.59 249.58,-55.41 250.08,-56.25 250.48,-57.11 250.79,-57.99 251.01,-58.89 251.13,-59.8 251.16,-60.72 251.11,-61.65 250.97,-62.59 250.74,-63.53 250.44,-64.47 250.06,-65.41 249.61,-66.35 249.09,-67.28 248.51,-68.2 247.86,-69.11 247.15,-70.01 246.4,-70.89 245.59,-71.75 244.73,-72.59 243.84,-73.41 242.91,-74.2 241.94,-74.96 240.94,-75.69 239.91,-76.39 238.86,-77.06 237.78,-77.69 236.69,-78.29 235.58,-78.84 234.45,-79.35 233.32,-79.82 232.17,-80.25 231.01,-80.64 229.84,-80.97 228.67,-81.26 227.5,-81.51 226.32,-81.7 225.14,-81.85 223.95,-81.95 222.77,-82 221.58,-82 220.39,-81.95 219.21,-81.85 218.03,-81.7 216.85,-81.51 215.67,-81.26 214.5,-80.97 213.34,-80.64 212.18,-80.25 211.03,-79.82 209.89,-79.35 208.77,-78.84 207.66,-78.29 206.56,-77.69 205.49,-77.06 204.44,-76.39 203.41,-75.69 202.41,-74.96 201.44,-74.2 200.51,-73.41 199.61,-72.59 198.76,-71.75 197.95,-70.89 197.19,-70.01 196.49,-69.11 195.84,-68.2 195.25,-67.28 194.73,-66.35 194.28,-65.41 193.9,-64.47 193.6,-63.53 193.38,-62.59 193.24,-61.65 193.18,-60.72 193.22,-59.8 193.34,-58.89 193.56,-57.99 193.86,-57.11 194.27,-56.25 194.77,-55.41 195.36,-54.59 196.05,-53.8 196.83,-53.04 197.7,-52.31 198.67,-51.61 199.72,-50.94 200.86,-50.31 202.08,-49.71 203.37,-49.16 204.74,-48.65 206.18,-48.18 207.69,-47.75 209.25,-47.36 210.86,-47.03 212.52,-46.74 214.22,-46.49 215.96,-46.3 217.71,-46.15 219.49,-46.05 221.28,-46 223.07,-46 224.86,-46.05"/>
<text text-anchor="middle" x="222.17" y="-61.5" font-family="monospace" font-size="10.00">mqtt</text>
</g>
<!-- sensor&#45;&gt;mqtt -->
<g id="edge2" class="edge">
<title>sensor&#45;&gt;mqtt</title>
<path fill="none" stroke="black" d="M156.95,-64C165.42,-64 174.72,-64 183.55,-64"/>
<polygon fill="white" stroke="black" points="183.62,-67.5 193.62,-64 183.62,-60.5 183.62,-67.5"/>
</g>
<!-- homeassistant -->
<g id="node4" class="node">
<title>homeassistant</title>
<polygon fill="none" stroke="#000000" stroke-opacity="0.600000" points="350.59,-46.05 354.15,-46.15 357.68,-46.3 361.15,-46.49 364.55,-46.74 367.88,-47.03 371.12,-47.36 374.25,-47.75 377.26,-48.18 380.15,-48.65 382.9,-49.16 385.5,-49.71 387.94,-50.31 390.22,-50.94 392.33,-51.61 394.27,-52.31 396.02,-53.04 397.58,-53.8 398.96,-54.59 400.15,-55.41 401.15,-56.25 401.96,-57.11 402.57,-57.99 403.01,-58.89 403.25,-59.8 403.32,-60.72 403.21,-61.65 402.93,-62.59 402.48,-63.53 401.88,-64.47 401.12,-65.41 400.21,-66.35 399.17,-67.28 397.99,-68.2 396.7,-69.11 395.29,-70.01 393.77,-70.89 392.15,-71.75 390.44,-72.59 388.64,-73.41 386.77,-74.2 384.83,-74.96 382.83,-75.69 380.77,-76.39 378.66,-77.06 376.5,-77.69 374.31,-78.29 372.09,-78.84 369.83,-79.35 367.55,-79.82 365.25,-80.25 362.93,-80.64 360.59,-80.97 358.25,-81.26 355.89,-81.51 353.53,-81.7 351.16,-81.85 348.78,-81.95 346.41,-82 344.03,-82 341.65,-81.95 339.28,-81.85 336.91,-81.7 334.54,-81.51 332.19,-81.26 329.84,-80.97 327.51,-80.64 325.19,-80.25 322.88,-79.82 320.6,-79.35 318.35,-78.84 316.12,-78.29 313.93,-77.69 311.78,-77.06 309.67,-76.39 307.61,-75.69 305.6,-74.96 303.66,-74.2 301.79,-73.41 300,-72.59 298.29,-71.75 296.67,-70.89 295.15,-70.01 293.74,-69.11 292.44,-68.2 291.27,-67.28 290.22,-66.35 289.32,-65.41 288.56,-64.47 287.95,-63.53 287.51,-62.59 287.22,-61.65 287.12,-60.72 287.18,-59.8 287.43,-58.89 287.86,-57.99 288.48,-57.11 289.29,-56.25 290.28,-55.41 291.47,-54.59 292.85,-53.8 294.42,-53.04 296.17,-52.31 298.1,-51.61 300.21,-50.94 302.49,-50.31 304.94,-49.71 307.54,-49.16 310.28,-48.65 313.17,-48.18 316.19,-47.75 319.32,-47.36 322.55,-47.03 325.88,-46.74 329.29,-46.49 332.76,-46.3 336.28,-46.15 339.84,-46.05 343.42,-46 347.01,-46 350.59,-46.05"/>
<text text-anchor="middle" x="345.22" y="-61.5" font-family="monospace" font-size="10.00">homeassistant</text>
</g>
<!-- mqtt&#45;&gt;homeassistant -->
<g id="edge3" class="edge">
<title>mqtt&#45;&gt;homeassistant</title>
<path fill="none" stroke="black" d="M250.64,-64C258.92,-64 268.4,-64 278.07,-64"/>
<polygon fill="white" stroke="black" points="278.17,-67.5 288.17,-64 278.17,-60.5 278.17,-67.5"/>
</g>
<!-- influxdb -->
<g id="node5" class="node">
<title>influxdb</title>
<polygon fill="none" stroke="#000000" stroke-opacity="0.600000" points="482.67,-54.05 485.09,-54.15 487.48,-54.3 489.84,-54.49 492.15,-54.74 494.42,-55.03 496.61,-55.36 498.74,-55.75 500.79,-56.18 502.75,-56.65 504.62,-57.16 506.39,-57.71 508.05,-58.31 509.6,-58.94 511.03,-59.61 512.35,-60.31 513.54,-61.04 514.6,-61.8 515.54,-62.59 516.35,-63.41 517.02,-64.25 517.57,-65.11 517.99,-65.99 518.29,-66.89 518.45,-67.8 518.5,-68.72 518.43,-69.65 518.23,-70.59 517.93,-71.53 517.52,-72.47 517,-73.41 516.39,-74.35 515.68,-75.28 514.88,-76.2 514,-77.11 513.04,-78.01 512.01,-78.89 510.91,-79.75 509.74,-80.59 508.52,-81.41 507.25,-82.2 505.93,-82.96 504.57,-83.69 503.17,-84.39 501.74,-85.06 500.28,-85.69 498.79,-86.29 497.27,-86.84 495.74,-87.35 494.19,-87.82 492.63,-88.25 491.05,-88.64 489.46,-88.97 487.87,-89.26 486.27,-89.51 484.66,-89.7 483.05,-89.85 481.43,-89.95 479.82,-90 478.2,-90 476.59,-89.95 474.98,-89.85 473.36,-89.7 471.76,-89.51 470.16,-89.26 468.56,-88.97 466.97,-88.64 465.4,-88.25 463.83,-87.82 462.28,-87.35 460.75,-86.84 459.24,-86.29 457.75,-85.69 456.28,-85.06 454.85,-84.39 453.45,-83.69 452.09,-82.96 450.77,-82.2 449.5,-81.41 448.28,-80.59 447.12,-79.75 446.02,-78.89 444.98,-78.01 444.02,-77.11 443.14,-76.2 442.34,-75.28 441.64,-74.35 441.02,-73.41 440.5,-72.47 440.09,-71.53 439.79,-70.59 439.6,-69.65 439.52,-68.72 439.57,-67.8 439.74,-66.89 440.03,-65.99 440.45,-65.11 441,-64.25 441.68,-63.41 442.49,-62.59 443.42,-61.8 444.49,-61.04 445.68,-60.31 446.99,-59.61 448.42,-58.94 449.97,-58.31 451.64,-57.71 453.4,-57.16 455.27,-56.65 457.23,-56.18 459.28,-55.75 461.41,-55.36 463.61,-55.03 465.87,-54.74 468.18,-54.49 470.54,-54.3 472.94,-54.15 475.36,-54.05 477.79,-54 480.23,-54 482.67,-54.05"/>
<text text-anchor="middle" x="479.01" y="-69.5" font-family="monospace" font-size="10.00">influxdb</text>
</g>
<!-- homeassistant&#45;&gt;influxdb -->
<g id="edge4" class="edge">
<title>homeassistant&#45;&gt;influxdb</title>
<path fill="none" stroke="black" d="M399.44,-67.23C409.41,-67.84 419.78,-68.47 429.59,-69.06"/>
<polygon fill="white" stroke="black" points="429.38,-72.55 439.58,-69.67 429.81,-65.57 429.38,-72.55"/>
</g>
<!-- valve -->
<g id="node7" class="node">
<title>valve</title>
<polygon fill="none" stroke="#000000" stroke-opacity="0.600000" points="481.69,-0.05 483.47,-0.15 485.23,-0.3 486.96,-0.49 488.66,-0.74 490.32,-1.03 491.93,-1.36 493.5,-1.75 495,-2.18 496.44,-2.65 497.81,-3.16 499.11,-3.71 500.33,-4.31 501.47,-4.94 502.52,-5.61 503.48,-6.31 504.36,-7.04 505.14,-7.8 505.83,-8.59 506.42,-9.41 506.92,-10.25 507.32,-11.11 507.63,-11.99 507.84,-12.89 507.97,-13.8 508,-14.72 507.95,-15.65 507.81,-16.59 507.58,-17.53 507.28,-18.47 506.9,-19.41 506.45,-20.35 505.93,-21.28 505.34,-22.2 504.7,-23.11 503.99,-24.01 503.23,-24.89 502.43,-25.75 501.57,-26.59 500.68,-27.41 499.74,-28.2 498.78,-28.96 497.78,-29.69 496.75,-30.39 495.7,-31.06 494.62,-31.69 493.53,-32.29 492.42,-32.84 491.29,-33.35 490.15,-33.82 489.01,-34.25 487.85,-34.64 486.68,-34.97 485.51,-35.26 484.34,-35.51 483.16,-35.7 481.97,-35.85 480.79,-35.95 479.6,-36 478.42,-36 477.23,-35.95 476.05,-35.85 474.87,-35.7 473.69,-35.51 472.51,-35.26 471.34,-34.97 470.18,-34.64 469.02,-34.25 467.87,-33.82 466.73,-33.35 465.61,-32.84 464.5,-32.29 463.4,-31.69 462.33,-31.06 461.27,-30.39 460.25,-29.69 459.25,-28.96 458.28,-28.2 457.35,-27.41 456.45,-26.59 455.6,-25.75 454.79,-24.89 454.03,-24.01 453.33,-23.11 452.68,-22.2 452.09,-21.28 451.57,-20.35 451.12,-19.41 450.74,-18.47 450.44,-17.53 450.22,-16.59 450.08,-15.65 450.02,-14.72 450.06,-13.8 450.18,-12.89 450.39,-11.99 450.7,-11.11 451.11,-10.25 451.6,-9.41 452.2,-8.59 452.88,-7.8 453.67,-7.04 454.54,-6.31 455.5,-5.61 456.56,-4.94 457.69,-4.31 458.91,-3.71 460.21,-3.16 461.58,-2.65 463.02,-2.18 464.53,-1.75 466.09,-1.36 467.7,-1.03 469.36,-0.74 471.06,-0.49 472.8,-0.3 474.55,-0.15 476.33,-0.05 478.12,0 479.91,0 481.69,-0.05"/>
<text text-anchor="middle" x="479.01" y="-15.5" font-family="monospace" font-size="10.00">valve</text>
</g>
<!-- homeassistant&#45;&gt;valve -->
<g id="edge6" class="edge">
<title>homeassistant&#45;&gt;valve</title>
<path fill="none" stroke="black" d="M386.48,-49.95C405.55,-43.29 428.02,-35.45 445.92,-29.2"/>
<polygon fill="white" stroke="black" points="447.32,-32.42 455.61,-25.82 445.01,-25.81 447.32,-32.42"/>
</g>
<!-- grafana -->
<g id="node6" class="node">
<title>grafana</title>
<polygon fill="none" stroke="#000000" stroke-opacity="0.600000" points="593.57,-54.05 595.77,-54.15 597.95,-54.3 600.1,-54.49 602.21,-54.74 604.27,-55.03 606.27,-55.36 608.21,-55.75 610.08,-56.18 611.86,-56.65 613.56,-57.16 615.17,-57.71 616.69,-58.31 618.1,-58.94 619.4,-59.61 620.6,-60.31 621.68,-61.04 622.65,-61.8 623.51,-62.59 624.24,-63.41 624.86,-64.25 625.36,-65.11 625.74,-65.99 626.01,-66.89 626.16,-67.8 626.21,-68.72 626.14,-69.65 625.96,-70.59 625.69,-71.53 625.31,-72.47 624.84,-73.41 624.28,-74.35 623.64,-75.28 622.91,-76.2 622.11,-77.11 621.23,-78.01 620.29,-78.89 619.29,-79.75 618.23,-80.59 617.12,-81.41 615.96,-82.2 614.76,-82.96 613.52,-83.69 612.24,-84.39 610.94,-85.06 609.61,-85.69 608.25,-86.29 606.87,-86.84 605.47,-87.35 604.06,-87.82 602.64,-88.25 601.2,-88.64 599.76,-88.97 598.3,-89.26 596.85,-89.51 595.38,-89.7 593.91,-89.85 592.45,-89.95 590.97,-90 589.5,-90 588.03,-89.95 586.56,-89.85 585.1,-89.7 583.63,-89.51 582.17,-89.26 580.72,-88.97 579.27,-88.64 577.84,-88.25 576.41,-87.82 575,-87.35 573.61,-86.84 572.23,-86.29 570.87,-85.69 569.54,-85.06 568.23,-84.39 566.96,-83.69 565.72,-82.96 564.52,-82.2 563.36,-81.41 562.25,-80.59 561.19,-79.75 560.19,-78.89 559.24,-78.01 558.37,-77.11 557.57,-76.2 556.84,-75.28 556.2,-74.35 555.64,-73.41 555.17,-72.47 554.79,-71.53 554.51,-70.59 554.34,-69.65 554.27,-68.72 554.31,-67.8 554.47,-66.89 554.73,-65.99 555.12,-65.11 555.62,-64.25 556.23,-63.41 556.97,-62.59 557.82,-61.8 558.79,-61.04 559.88,-60.31 561.07,-59.61 562.38,-58.94 563.79,-58.31 565.3,-57.71 566.91,-57.16 568.61,-56.65 570.4,-56.18 572.27,-55.75 574.21,-55.36 576.21,-55.03 578.27,-54.74 580.38,-54.49 582.53,-54.3 584.71,-54.15 586.91,-54.05 589.13,-54 591.35,-54 593.57,-54.05"/>
<text text-anchor="middle" x="590.24" y="-69.5" font-family="monospace" font-size="10.00">grafana</text>
</g>
<!-- influxdb&#45;&gt;grafana -->
<g id="edge5" class="edge">
<title>influxdb&#45;&gt;grafana</title>
<path fill="none" stroke="black" d="M517.91,-72C526.5,-72 535.7,-72 544.54,-72"/>
<polygon fill="white" stroke="black" points="544.7,-75.5 554.7,-72 544.7,-68.5 544.7,-75.5"/>
</g>
<!-- valve&#45;&gt;plant -->
<g id="edge7" class="edge">
<title>valve&#45;&gt;plant</title>
<path fill="none" stroke="black" d="M450.97,-19.21C388.17,-22.05 227.62,-29.48 93.49,-37 85.14,-37.47 76.19,-38.01 67.71,-38.53"/>
<polygon fill="white" stroke="black" points="67.42,-35.05 57.66,-39.17 67.86,-42.03 67.42,-35.05"/>
</g>
</g>
</svg>
