<?xml version="1.0" encoding="UTF-8" standalone="no"?>
<!DOCTYPE svg PUBLIC "-//W3C//DTD SVG 1.1//EN"
 "http://www.w3.org/Graphics/SVG/1.1/DTD/svg11.dtd">
<!-- Generated by graphviz version 2.42.4 (0)
 -->
<!-- Pages: 1 -->
<svg width="470pt" height="334pt"
 viewBox="0.00 0.00 470.00 334.00" xmlns="http://www.w3.org/2000/svg" xmlns:xlink="http://www.w3.org/1999/xlink">
<g id="graph0" class="graph" transform="scale(1 1) rotate(0) translate(4 330)">
<!-- PumpOrValve -->
<g id="node1" class="node">
<title>PumpOrValve</title>
<polygon fill="none" stroke="#ffffff" stroke-opacity="0.266667" points="107,-210 0,-210 0,-174 107,-174 107,-210"/>
<text text-anchor="middle" x="53.5" y="-188.3" font-family="monospace" font-size="14.00" fill="white">PumpOrValve</text>
</g>
<!-- CorePipe -->
<g id="node2" class="node">
<title>CorePipe</title>
<polygon fill="none" stroke="#ffffff" stroke-opacity="0.266667" points="238,-210 155,-210 155,-174 238,-174 238,-210"/>
<text text-anchor="middle" x="196.5" y="-188.3" font-family="monospace" font-size="14.00" fill="white">CorePipe</text>
</g>
<!-- PumpOrValve&#45;&gt;CorePipe -->
<g id="edge1" class="edge">
<title>PumpOrValve&#45;&gt;CorePipe</title>
<path fill="none" stroke="#7777ff" stroke-opacity="0.666667" d="M107,-192C119.36,-192 132.51,-192 144.78,-192"/>
<polygon fill="#ffffff" fill-opacity="0.188235" stroke="#7777ff" stroke-opacity="0.666667" points="144.85,-195.5 154.85,-192 144.85,-188.5 144.85,-195.5"/>
</g>
<!-- Valve1 -->
<g id="node3" class="node">
<title>Valve1</title>
<polygon fill="none" stroke="#ffffff" stroke-opacity="0.266667" points="356,-268 290,-268 290,-232 356,-232 356,-268"/>
<text text-anchor="middle" x="323" y="-246.3" font-family="monospace" font-size="14.00" fill="white">Valve1</text>
</g>
<!-- CorePipe&#45;&gt;Valve1 -->
<g id="edge2" class="edge">
<title>CorePipe&#45;&gt;Valve1</title>
<path fill="none" stroke="#7777ff" stroke-opacity="0.666667" d="M236.21,-210.03C250.26,-216.58 266.19,-224 280.48,-230.66"/>
<polygon fill="#ffffff" fill-opacity="0.188235" stroke="#7777ff" stroke-opacity="0.666667" points="279.05,-233.85 289.59,-234.9 282.01,-227.51 279.05,-233.85"/>
</g>
<!-- Valve2 -->
<g id="node4" class="node">
<title>Valve2</title>
<polygon fill="none" stroke="#ffffff" stroke-opacity="0.266667" points="356,-210 290,-210 290,-174 356,-174 356,-210"/>
<text text-anchor="middle" x="323" y="-188.3" font-family="monospace" font-size="14.00" fill="white">Valve2</text>
</g>
<!-- CorePipe&#45;&gt;Valve2 -->
<g id="edge3" class="edge">
<title>CorePipe&#45;&gt;Valve2</title>
<path fill="none" stroke="#7777ff" stroke-opacity="0.666667" d="M238.27,-192C251.47,-192 266.15,-192 279.48,-192"/>
<polygon fill="#ffffff" fill-opacity="0.188235" stroke="#7777ff" stroke-opacity="0.666667" points="279.83,-195.5 289.83,-192 279.83,-188.5 279.83,-195.5"/>
</g>
<!-- Valve3 -->
<g id="node5" class="node">
<title>Valve3</title>
<polygon fill="none" stroke="#ffffff" stroke-opacity="0.266667" points="356,-94 290,-94 290,-58 356,-58 356,-94"/>
<text text-anchor="middle" x="323" y="-72.3" font-family="monospace" font-size="14.00" fill="white">Valve3</text>
</g>
<!-- CorePipe&#45;&gt;Valve3 -->
<g id="edge4" class="edge">
<title>CorePipe&#45;&gt;Valve3</title>
<path fill="none" stroke="#7777ff" stroke-opacity="0.666667" d="M235.82,-173.91C240.88,-170.66 245.77,-167.02 250,-163 271.99,-142.1 265.9,-127.73 286,-105 287.13,-103.72 288.33,-102.45 289.56,-101.2"/>
<polygon fill="#ffffff" fill-opacity="0.188235" stroke="#7777ff" stroke-opacity="0.666667" points="292.05,-103.67 296.99,-94.3 287.28,-98.54 292.05,-103.67"/>
</g>
<!-- Plant1 -->
<g id="node6" class="node">
<title>Plant1</title>
<polygon fill="none" stroke="#ffffff" stroke-opacity="0.266667" points="462,-282 396,-282 396,-246 462,-246 462,-282"/>
<text text-anchor="middle" x="429" y="-260.3" font-family="monospace" font-size="14.00" fill="white">Plant1</text>
</g>
<!-- Valve1&#45;&gt;Plant1 -->
<g id="edge5" class="edge">
<title>Valve1&#45;&gt;Plant1</title>
<path fill="none" stroke="#7777ff" stroke-opacity="0.666667" d="M356.05,-254.31C365.44,-255.58 375.86,-256.98 385.78,-258.32"/>
<polygon fill="#ffffff" fill-opacity="0.188235" stroke="#7777ff" stroke-opacity="0.666667" points="385.5,-261.81 395.87,-259.68 386.43,-254.87 385.5,-261.81"/>
</g>
<!-- Plant2 -->
<g id="node7" class="node">
<title>Plant2</title>
<polygon fill="none" stroke="#ffffff" stroke-opacity="0.266667" points="462,-195 396,-195 396,-159 462,-159 462,-195"/>
<text text-anchor="middle" x="429" y="-173.3" font-family="monospace" font-size="14.00" fill="white">Plant2</text>
</g>
<!-- Valve2&#45;&gt;Plant2 -->
<g id="edge6" class="edge">
<title>Valve2&#45;&gt;Plant2</title>
<path fill="none" stroke="#7777ff" stroke-opacity="0.666667" d="M356.05,-187.38C365.44,-186.02 375.86,-184.52 385.78,-183.09"/>
<polygon fill="#ffffff" fill-opacity="0.188235" stroke="#7777ff" stroke-opacity="0.666667" points="386.48,-186.53 395.87,-181.63 385.48,-179.6 386.48,-186.53"/>
</g>
<!-- Plant3 -->
<g id="node8" class="node">
<title>Plant3</title>
<polygon fill="none" stroke="#ffffff" stroke-opacity="0.266667" points="462,-65 396,-65 396,-29 462,-29 462,-65"/>
<text text-anchor="middle" x="429" y="-43.3" font-family="monospace" font-size="14.00" fill="white">Plant3</text>
</g>
<!-- Valve3&#45;&gt;Plant3 -->
<g id="edge7" class="edge">
<title>Valve3&#45;&gt;Plant3</title>
<path fill="none" stroke="#7777ff" stroke-opacity="0.666667" d="M356.05,-67.06C365.54,-64.42 376.08,-61.48 386.09,-58.69"/>
<polygon fill="#ffffff" fill-opacity="0.188235" stroke="#7777ff" stroke-opacity="0.666667" points="387.18,-62.02 395.87,-55.96 385.3,-55.27 387.18,-62.02"/>
</g>
<!-- Controller1 -->
<g id="node9" class="node">
<title>Controller1</title>
<polygon fill="none" stroke="#ffffff" stroke-opacity="0.266667" points="250,-297 143,-297 143,-261 250,-261 250,-297"/>
<text text-anchor="middle" x="196.5" y="-275.3" font-family="monospace" font-size="14.00" fill="white">Controller1</text>
</g>
<!-- Controller1&#45;&gt;Valve1 -->
<g id="edge8" class="edge">
<title>Controller1&#45;&gt;Valve1</title>
<path fill="none" stroke="#ffffff" stroke-dasharray="5,2" stroke-opacity="0.666667" d="M250.3,-266.7C260.13,-264.41 270.28,-262.05 279.75,-259.84"/>
<polygon fill="#ffffff" fill-opacity="0.188235" stroke="#ffffff" stroke-opacity="0.666667" points="280.75,-263.2 289.7,-257.52 279.16,-256.38 280.75,-263.2"/>
</g>
<!-- Sensor1 -->
<g id="node12" class="node">
<title>Sensor1</title>
<polygon fill="none" stroke="#ffffff" stroke-opacity="0.266667" points="360,-326 286,-326 286,-290 360,-290 360,-326"/>
<text text-anchor="middle" x="323" y="-304.3" font-family="monospace" font-size="14.00" fill="white">Sensor1</text>
</g>
<!-- Controller1&#45;&gt;Sensor1 -->
<g id="edge11" class="edge">
<title>Controller1&#45;&gt;Sensor1</title>
<path fill="none" stroke="#ffffff" stroke-dasharray="5,2" stroke-opacity="0.666667" d="M250.3,-291.3C258.78,-293.27 267.5,-295.31 275.81,-297.24"/>
<polygon fill="#ffffff" fill-opacity="0.188235" stroke="#ffffff" stroke-opacity="0.666667" points="275.17,-300.69 285.7,-299.55 276.76,-293.87 275.17,-300.69"/>
</g>
<!-- Controller2 -->
<g id="node10" class="node">
<title>Controller2</title>
<polygon fill="none" stroke="#ffffff" stroke-opacity="0.266667" points="250,-152 143,-152 143,-116 250,-116 250,-152"/>
<text text-anchor="middle" x="196.5" y="-130.3" font-family="monospace" font-size="14.00" fill="white">Controller2</text>
</g>
<!-- Controller2&#45;&gt;Valve2 -->
<g id="edge9" class="edge">
<title>Controller2&#45;&gt;Valve2</title>
<path fill="none" stroke="#ffffff" stroke-dasharray="5,2" stroke-opacity="0.666667" d="M236.21,-152.03C250.26,-158.58 266.19,-166 280.48,-172.66"/>
<polygon fill="#ffffff" fill-opacity="0.188235" stroke="#ffffff" stroke-opacity="0.666667" points="279.05,-175.85 289.59,-176.9 282.01,-169.51 279.05,-175.85"/>
</g>
<!-- Sensor2 -->
<g id="node13" class="node">
<title>Sensor2</title>
<polygon fill="none" stroke="#ffffff" stroke-opacity="0.266667" points="360,-152 286,-152 286,-116 360,-116 360,-152"/>
<text text-anchor="middle" x="323" y="-130.3" font-family="monospace" font-size="14.00" fill="white">Sensor2</text>
</g>
<!-- Controller2&#45;&gt;Sensor2 -->
<g id="edge13" class="edge">
<title>Controller2&#45;&gt;Sensor2</title>
<path fill="none" stroke="#ffffff" stroke-dasharray="5,2" stroke-opacity="0.666667" d="M250.3,-134C258.69,-134 267.31,-134 275.54,-134"/>
<polygon fill="#ffffff" fill-opacity="0.188235" stroke="#ffffff" stroke-opacity="0.666667" points="275.7,-137.5 285.7,-134 275.7,-130.5 275.7,-137.5"/>
</g>
<!-- Controller3 -->
<g id="node11" class="node">
<title>Controller3</title>
<polygon fill="none" stroke="#ffffff" stroke-opacity="0.266667" points="250,-65 143,-65 143,-29 250,-29 250,-65"/>
<text text-anchor="middle" x="196.5" y="-43.3" font-family="monospace" font-size="14.00" fill="white">Controller3</text>
</g>
<!-- Controller3&#45;&gt;Valve3 -->
<g id="edge10" class="edge">
<title>Controller3&#45;&gt;Valve3</title>
<path fill="none" stroke="#ffffff" stroke-dasharray="5,2" stroke-opacity="0.666667" d="M250.3,-59.3C260.13,-61.59 270.28,-63.95 279.75,-66.16"/>
<polygon fill="#ffffff" fill-opacity="0.188235" stroke="#ffffff" stroke-opacity="0.666667" points="279.16,-69.62 289.7,-68.48 280.75,-62.8 279.16,-69.62"/>
</g>
<!-- Sensor3 -->
<g id="node14" class="node">
<title>Sensor3</title>
<polygon fill="none" stroke="#ffffff" stroke-opacity="0.266667" points="360,-36 286,-36 286,0 360,0 360,-36"/>
<text text-anchor="middle" x="323" y="-14.3" font-family="monospace" font-size="14.00" fill="white">Sensor3</text>
</g>
<!-- Controller3&#45;&gt;Sensor3 -->
<g id="edge15" class="edge">
<title>Controller3&#45;&gt;Sensor3</title>
<path fill="none" stroke="#ffffff" stroke-dasharray="5,2" stroke-opacity="0.666667" d="M250.3,-34.7C258.78,-32.73 267.5,-30.69 275.81,-28.76"/>
<polygon fill="#ffffff" fill-opacity="0.188235" stroke="#ffffff" stroke-opacity="0.666667" points="276.76,-32.13 285.7,-26.45 275.17,-25.31 276.76,-32.13"/>
</g>
<!-- Sensor1&#45;&gt;Plant1 -->
<g id="edge12" class="edge">
<title>Sensor1&#45;&gt;Plant1</title>
<path fill="none" stroke="#ffffff" stroke-dasharray="5,2" stroke-opacity="0.666667" d="M360.08,-292.73C368.61,-289.13 377.78,-285.25 386.52,-281.55"/>
<polygon fill="#ffffff" fill-opacity="0.188235" stroke="#ffffff" stroke-opacity="0.666667" points="387.96,-284.74 395.8,-277.62 385.23,-278.29 387.96,-284.74"/>
</g>
<!-- Sensor2&#45;&gt;Plant2 -->
<g id="edge14" class="edge">
<title>Sensor2&#45;&gt;Plant2</title>
<path fill="none" stroke="#ffffff" stroke-dasharray="5,2" stroke-opacity="0.666667" d="M360.08,-148.92C368.61,-152.45 377.78,-156.23 386.52,-159.85"/>
<polygon fill="#ffffff" fill-opacity="0.188235" stroke="#ffffff" stroke-opacity="0.666667" points="385.23,-163.1 395.8,-163.69 387.9,-156.63 385.23,-163.1"/>
</g>
<!-- Sensor3&#45;&gt;Plant3 -->
<g id="edge16" class="edge">
<title>Sensor3&#45;&gt;Plant3</title>
<path fill="none" stroke="#ffffff" stroke-dasharray="5,2" stroke-opacity="0.666667" d="M360.08,-28.06C368.43,-30.39 377.39,-32.89 385.97,-35.28"/>
<polygon fill="#ffffff" fill-opacity="0.188235" stroke="#ffffff" stroke-opacity="0.666667" points="385.23,-38.71 395.8,-38.02 387.11,-31.97 385.23,-38.71"/>
</g>
</g>
</svg>
