<?xml version="1.0" encoding="UTF-8" standalone="no"?>
<!DOCTYPE svg PUBLIC "-//W3C//DTD SVG 1.1//EN"
 "http://www.w3.org/Graphics/SVG/1.1/DTD/svg11.dtd">
<!-- Generated by graphviz version 2.42.4 (0)
 -->
<!-- Pages: 1 -->
<svg width="518pt" height="446pt"
 viewBox="0.00 0.00 518.00 446.00" xmlns="http://www.w3.org/2000/svg" xmlns:xlink="http://www.w3.org/1999/xlink">
<g id="graph0" class="graph" transform="scale(1 1) rotate(0) translate(4 442)">
<!-- PumpOrValve -->
<g id="node1" class="node">
<title>PumpOrValve</title>
<polygon fill="none" stroke="#ffffff" stroke-width="2" points="119,-280 0,-280 0,-237 119,-237 119,-280"/>
<text text-anchor="middle" x="59.5" y="-254.8" font-family="monospace" font-size="14.00" fill="white">PumpOrValve</text>
</g>
<!-- CorePipe -->
<g id="node2" class="node">
<title>CorePipe</title>
<polygon fill="none" stroke="#ffffff" stroke-width="2" points="262,-280 167,-280 167,-237 262,-237 262,-280"/>
<text text-anchor="middle" x="214.5" y="-254.8" font-family="monospace" font-size="14.00" fill="white">CorePipe</text>
</g>
<!-- PumpOrValve&#45;&gt;CorePipe -->
<g id="edge1" class="edge">
<title>PumpOrValve&#45;&gt;CorePipe</title>
<path fill="none" stroke="#7777ff" d="M119.22,-258.5C131.46,-258.5 144.35,-258.5 156.53,-258.5"/>
<polygon fill="transparent" stroke="#7777ff" points="156.57,-262 166.57,-258.5 156.57,-255 156.57,-262"/>
</g>
<!-- Valve1 -->
<g id="node3" class="node">
<title>Valve1</title>
<polygon fill="none" stroke="#ffffff" stroke-width="2" points="392,-359 314,-359 314,-316 392,-316 392,-359"/>
<text text-anchor="middle" x="353" y="-333.8" font-family="monospace" font-size="14.00" fill="white">Valve1</text>
</g>
<!-- CorePipe&#45;&gt;Valve1 -->
<g id="edge2" class="edge">
<title>CorePipe&#45;&gt;Valve1</title>
<path fill="none" stroke="#7777ff" d="M252.8,-280.09C269.2,-289.58 288.63,-300.82 305.92,-310.83"/>
<polygon fill="transparent" stroke="#7777ff" points="304.34,-313.96 314.75,-315.94 307.84,-307.9 304.34,-313.96"/>
</g>
<!-- Valve2 -->
<g id="node4" class="node">
<title>Valve2</title>
<polygon fill="none" stroke="#ffffff" stroke-width="2" points="392,-280 314,-280 314,-237 392,-237 392,-280"/>
<text text-anchor="middle" x="353" y="-254.8" font-family="monospace" font-size="14.00" fill="white">Valve2</text>
</g>
<!-- CorePipe&#45;&gt;Valve2 -->
<g id="edge3" class="edge">
<title>CorePipe&#45;&gt;Valve2</title>
<path fill="none" stroke="#7777ff" d="M262.09,-258.5C275.51,-258.5 290.17,-258.5 303.69,-258.5"/>
<polygon fill="transparent" stroke="#7777ff" points="303.77,-262 313.77,-258.5 303.77,-255 303.77,-262"/>
</g>
<!-- Valve3 -->
<g id="node5" class="node">
<title>Valve3</title>
<polygon fill="none" stroke="#ffffff" stroke-width="2" points="392,-122 314,-122 314,-79 392,-79 392,-122"/>
<text text-anchor="middle" x="353" y="-96.8" font-family="monospace" font-size="14.00" fill="white">Valve3</text>
</g>
<!-- CorePipe&#45;&gt;Valve3 -->
<g id="edge4" class="edge">
<title>CorePipe&#45;&gt;Valve3</title>
<path fill="none" stroke="#7777ff" d="M254.52,-236.98C261.6,-231.89 268.48,-226.02 274,-219.5 299.2,-189.75 287.26,-171.17 310,-139.5 312.48,-136.04 315.3,-132.66 318.29,-129.41"/>
<polygon fill="transparent" stroke="#7777ff" points="320.94,-131.7 325.45,-122.12 315.94,-126.8 320.94,-131.7"/>
</g>
<!-- Plant1 -->
<g id="node6" class="node">
<title>Plant1</title>
<polygon fill="none" stroke="#ffffff" stroke-width="2" points="510,-378 432,-378 432,-335 510,-335 510,-378"/>
<text text-anchor="middle" x="471" y="-352.8" font-family="monospace" font-size="14.00" fill="white">Plant1</text>
</g>
<!-- Valve1&#45;&gt;Plant1 -->
<g id="edge5" class="edge">
<title>Valve1&#45;&gt;Plant1</title>
<path fill="none" stroke="#7777ff" d="M392.3,-343.77C401.71,-345.31 411.9,-346.98 421.7,-348.59"/>
<polygon fill="transparent" stroke="#7777ff" points="421.3,-352.07 431.74,-350.23 422.43,-345.16 421.3,-352.07"/>
</g>
<!-- Plant2 -->
<g id="node7" class="node">
<title>Plant2</title>
<polygon fill="none" stroke="#ffffff" stroke-width="2" points="510,-260 432,-260 432,-217 510,-217 510,-260"/>
<text text-anchor="middle" x="471" y="-234.8" font-family="monospace" font-size="14.00" fill="white">Plant2</text>
</g>
<!-- Valve2&#45;&gt;Plant2 -->
<g id="edge6" class="edge">
<title>Valve2&#45;&gt;Plant2</title>
<path fill="none" stroke="#7777ff" d="M392.3,-251.9C401.71,-250.27 411.9,-248.52 421.7,-246.83"/>
<polygon fill="transparent" stroke="#7777ff" points="422.48,-250.25 431.74,-245.1 421.29,-243.35 422.48,-250.25"/>
</g>
<!-- Plant3 -->
<g id="node8" class="node">
<title>Plant3</title>
<polygon fill="none" stroke="#ffffff" stroke-width="2" points="510,-83 432,-83 432,-40 510,-40 510,-83"/>
<text text-anchor="middle" x="471" y="-57.8" font-family="monospace" font-size="14.00" fill="white">Plant3</text>
</g>
<!-- Valve3&#45;&gt;Plant3 -->
<g id="edge7" class="edge">
<title>Valve3&#45;&gt;Plant3</title>
<path fill="none" stroke="#7777ff" d="M392.3,-87.62C401.81,-84.43 412.11,-80.96 422.01,-77.63"/>
<polygon fill="transparent" stroke="#7777ff" points="423.37,-80.87 431.74,-74.36 421.14,-74.23 423.37,-80.87"/>
</g>
<!-- Controller1 -->
<g id="node9" class="node">
<title>Controller1</title>
<polygon fill="none" stroke="#ffffff" stroke-width="2" points="274,-398 155,-398 155,-355 274,-355 274,-398"/>
<text text-anchor="middle" x="214.5" y="-372.8" font-family="monospace" font-size="14.00" fill="white">Controller1</text>
</g>
<!-- Controller1&#45;&gt;Valve1 -->
<g id="edge8" class="edge">
<title>Controller1&#45;&gt;Valve1</title>
<path fill="none" stroke="#ffffff" stroke-dasharray="5,2" d="M274.18,-359.73C284.16,-356.88 294.41,-353.95 304.06,-351.2"/>
<polygon fill="transparent" stroke="#ffffff" points="305.22,-354.51 313.88,-348.39 303.3,-347.77 305.22,-354.51"/>
</g>
<!-- Sensor1 -->
<g id="node12" class="node">
<title>Sensor1</title>
<polygon fill="none" stroke="#ffffff" stroke-width="2" points="396,-438 310,-438 310,-395 396,-395 396,-438"/>
<text text-anchor="middle" x="353" y="-412.8" font-family="monospace" font-size="14.00" fill="white">Sensor1</text>
</g>
<!-- Controller1&#45;&gt;Sensor1 -->
<g id="edge11" class="edge">
<title>Controller1&#45;&gt;Sensor1</title>
<path fill="none" stroke="#ffffff" stroke-dasharray="5,2" d="M274.18,-393.7C282.8,-396.22 291.63,-398.81 300.1,-401.29"/>
<polygon fill="transparent" stroke="#ffffff" points="299.27,-404.69 309.85,-404.15 301.24,-397.98 299.27,-404.69"/>
</g>
<!-- Controller2 -->
<g id="node10" class="node">
<title>Controller2</title>
<polygon fill="none" stroke="#ffffff" stroke-width="2" points="274,-201 155,-201 155,-158 274,-158 274,-201"/>
<text text-anchor="middle" x="214.5" y="-175.8" font-family="monospace" font-size="14.00" fill="white">Controller2</text>
</g>
<!-- Controller2&#45;&gt;Valve2 -->
<g id="edge9" class="edge">
<title>Controller2&#45;&gt;Valve2</title>
<path fill="none" stroke="#ffffff" stroke-dasharray="5,2" d="M252.8,-201.09C269.2,-210.58 288.63,-221.82 305.92,-231.83"/>
<polygon fill="transparent" stroke="#ffffff" points="304.34,-234.96 314.75,-236.94 307.84,-228.9 304.34,-234.96"/>
</g>
<!-- Sensor2 -->
<g id="node13" class="node">
<title>Sensor2</title>
<polygon fill="none" stroke="#ffffff" stroke-width="2" points="396,-201 310,-201 310,-158 396,-158 396,-201"/>
<text text-anchor="middle" x="353" y="-175.8" font-family="monospace" font-size="14.00" fill="white">Sensor2</text>
</g>
<!-- Controller2&#45;&gt;Sensor2 -->
<g id="edge13" class="edge">
<title>Controller2&#45;&gt;Sensor2</title>
<path fill="none" stroke="#ffffff" stroke-dasharray="5,2" d="M274.18,-179.5C282.71,-179.5 291.44,-179.5 299.83,-179.5"/>
<polygon fill="transparent" stroke="#ffffff" points="299.85,-183 309.85,-179.5 299.85,-176 299.85,-183"/>
</g>
<!-- Controller3 -->
<g id="node11" class="node">
<title>Controller3</title>
<polygon fill="none" stroke="#ffffff" stroke-width="2" points="274,-83 155,-83 155,-40 274,-40 274,-83"/>
<text text-anchor="middle" x="214.5" y="-57.8" font-family="monospace" font-size="14.00" fill="white">Controller3</text>
</g>
<!-- Controller3&#45;&gt;Valve3 -->
<g id="edge10" class="edge">
<title>Controller3&#45;&gt;Valve3</title>
<path fill="none" stroke="#ffffff" stroke-dasharray="5,2" d="M274.18,-78.27C284.16,-81.12 294.41,-84.05 304.06,-86.8"/>
<polygon fill="transparent" stroke="#ffffff" points="303.3,-90.23 313.88,-89.61 305.22,-83.49 303.3,-90.23"/>
</g>
<!-- Sensor3 -->
<g id="node14" class="node">
<title>Sensor3</title>
<polygon fill="none" stroke="#ffffff" stroke-width="2" points="396,-43 310,-43 310,0 396,0 396,-43"/>
<text text-anchor="middle" x="353" y="-17.8" font-family="monospace" font-size="14.00" fill="white">Sensor3</text>
</g>
<!-- Controller3&#45;&gt;Sensor3 -->
<g id="edge15" class="edge">
<title>Controller3&#45;&gt;Sensor3</title>
<path fill="none" stroke="#ffffff" stroke-dasharray="5,2" d="M274.18,-44.3C282.8,-41.78 291.63,-39.19 300.1,-36.71"/>
<polygon fill="transparent" stroke="#ffffff" points="301.24,-40.02 309.85,-33.85 299.27,-33.31 301.24,-40.02"/>
</g>
<!-- Sensor1&#45;&gt;Plant1 -->
<g id="edge12" class="edge">
<title>Sensor1&#45;&gt;Plant1</title>
<path fill="none" stroke="#ffffff" stroke-dasharray="5,2" d="M395.88,-394.84C404.55,-390.35 413.74,-385.6 422.59,-381.02"/>
<polygon fill="transparent" stroke="#ffffff" points="424.38,-384.04 431.66,-376.33 421.17,-377.82 424.38,-384.04"/>
</g>
<!-- Sensor2&#45;&gt;Plant2 -->
<g id="edge14" class="edge">
<title>Sensor2&#45;&gt;Plant2</title>
<path fill="none" stroke="#ffffff" stroke-dasharray="5,2" d="M396.21,-200.97C404.86,-205.37 414.02,-210.03 422.84,-214.51"/>
<polygon fill="transparent" stroke="#ffffff" points="421.36,-217.69 431.86,-219.1 424.54,-211.45 421.36,-217.69"/>
</g>
<!-- Sensor3&#45;&gt;Plant3 -->
<g id="edge16" class="edge">
<title>Sensor3&#45;&gt;Plant3</title>
<path fill="none" stroke="#ffffff" stroke-dasharray="5,2" d="M396.21,-36.05C404.68,-38.98 413.64,-42.06 422.28,-45.05"/>
<polygon fill="transparent" stroke="#ffffff" points="421.27,-48.4 431.86,-48.35 423.55,-41.78 421.27,-48.4"/>
</g>
</g>
</svg>
